<svg width="80" height="80" viewBox="0 0 80 80" fill="none" xmlns="http://www.w3.org/2000/svg">
<g filter="url(#filter0_d_49_621)">
<circle cx="40" cy="40" r="18" fill="#9F2042"/>
</g>
<path d="M39.6503 39.4499C42.5887 39.4499 44.9916 37.0616 44.9916 34.1231C44.9916 31.1847 42.6032 28.7818 39.6503 28.7818C36.7119 28.7818 34.3235 31.1702 34.3235 34.1231C34.3235 37.076 36.7119 39.4499 39.6503 39.4499Z" fill="#FFB400"/>
<path d="M43.8192 41.5199H36.1909C32.7747 41.5199 30.01 44.2991 30.01 47.7007V48.685C30.01 50.0746 31.1535 51.2181 32.5431 51.2181H47.4669C48.8565 51.2181 50.0001 50.0746 50.0001 48.685V47.7152C50.0001 44.2991 47.2208 41.5199 43.8192 41.5199Z" fill="#FFB400"/>
<defs>
<filter id="filter0_d_49_621" x="0" y="0" width="80" height="80" filterUnits="userSpaceOnUse" color-interpolation-filters="sRGB">
<feFlood flood-opacity="0" result="BackgroundImageFix"/>
<feColorMatrix in="SourceAlpha" type="matrix" values="0 0 0 0 0 0 0 0 0 0 0 0 0 0 0 0 0 0 127 0" result="hardAlpha"/>
<feMorphology radius="2" operator="dilate" in="SourceAlpha" result="effect1_dropShadow_49_621"/>
<feOffset/>
<feGaussianBlur stdDeviation="10"/>
<feComposite in2="hardAlpha" operator="out"/>
<feColorMatrix type="matrix" values="0 0 0 0 0 0 0 0 0 0.0933036 0 0 0 0 0.1375 0 0 0 0.7 0"/>
<feBlend mode="normal" in2="BackgroundImageFix" result="effect1_dropShadow_49_621"/>
<feBlend mode="normal" in="SourceGraphic" in2="effect1_dropShadow_49_621" result="shape"/>
</filter>
</defs>
</svg>
