<svg width="24" height="20" viewBox="0 0 24 20" fill="none" xmlns="http://www.w3.org/2000/svg">
<path d="M16 5H19V9H16V5ZM9 13H20ZM9 9H13ZM9 5H13ZM6 16.5C6 17.163 5.73661 17.7989 5.26777 18.2678C4.79893 18.7366 4.16304 19 3.5 19C2.83696 19 2.20107 18.7366 1.73223 18.2678C1.26339 17.7989 1 17.163 1 16.5V5H6.025M6 16.5V1H23V16.5C23 17.163 22.7366 17.7989 22.2678 18.2678C21.7989 18.7366 21.163 19 20.5 19H3.5" fill="#FFB400"/>
<path d="M9 13H20M9 9H13M9 5H13M6 16.5C6 17.163 5.73661 17.7989 5.26777 18.2678C4.79893 18.7366 4.16304 19 3.5 19C2.83696 19 2.20107 18.7366 1.73223 18.2678C1.26339 17.7989 1 17.163 1 16.5V5H6.025M6 16.5V1H23V16.5C23 17.163 22.7366 17.7989 22.2678 18.2678C21.7989 18.7366 21.163 19 20.5 19H3.5M16 5H19V9H16V5Z" stroke="#9F2042"/>
</svg>
