<svg width="33" height="20" viewBox="0 0 33 20" fill="none" xmlns="http://www.w3.org/2000/svg">
<path d="M17.1429 8.57143C17.9905 8.57143 18.8191 8.32008 19.5239 7.84916C20.2287 7.37824 20.778 6.7089 21.1023 5.92579C21.4267 5.14268 21.5116 4.28096 21.3462 3.44961C21.1809 2.61827 20.7727 1.85463 20.1733 1.25526C19.5739 0.65589 18.8103 0.247716 17.979 0.0823507C17.1476 -0.0830145 16.2859 0.00185694 15.5028 0.326232C14.7197 0.650608 14.0503 1.19992 13.5794 1.9047C13.1085 2.60948 12.8571 3.43808 12.8571 4.28572C12.8571 5.42236 13.3087 6.51245 14.1124 7.31617C14.9161 8.1199 16.0062 8.57143 17.1429 8.57143ZM17.1429 2.85714C17.4254 2.85714 17.7016 2.94093 17.9365 3.0979C18.1715 3.25488 18.3546 3.47799 18.4627 3.73903C18.5708 4.00006 18.5991 4.2873 18.544 4.56442C18.4889 4.84153 18.3528 5.09608 18.153 5.29587C17.9532 5.49566 17.6987 5.63172 17.4216 5.68684C17.1444 5.74196 16.8572 5.71367 16.5962 5.60554C16.3351 5.49742 16.112 5.31432 15.955 5.07939C15.7981 4.84446 15.7143 4.56826 15.7143 4.28572C15.7143 3.90684 15.8648 3.54347 16.1327 3.27556C16.4006 3.00765 16.764 2.85714 17.1429 2.85714ZM23.0143 8.37143C23.8501 7.1729 24.2982 5.74688 24.2982 4.28572C24.2982 2.82455 23.8501 1.39853 23.0143 0.200001C23.4251 0.0677349 23.8541 0.000259935 24.2857 1.63072e-06C25.4224 1.63072e-06 26.5124 0.451531 27.3162 1.25526C28.1199 2.05899 28.5714 3.14907 28.5714 4.28572C28.5714 5.42236 28.1199 6.51245 27.3162 7.31617C26.5124 8.1199 25.4224 8.57143 24.2857 8.57143C23.8541 8.57117 23.4251 8.5037 23.0143 8.37143ZM17.1429 11.4286C8.57143 11.4286 8.57143 17.1429 8.57143 17.1429V20H25.7143V17.1429C25.7143 17.1429 25.7143 11.4286 17.1429 11.4286ZM11.4286 17.1429C11.4286 16.7286 11.8857 14.2857 17.1429 14.2857C22.1429 14.2857 22.7714 16.5143 22.8571 17.1429M32.8571 17.1429V20H28.5714V17.1429C28.538 16.0809 28.2935 15.0363 27.852 14.0699C27.4105 13.1035 26.7809 12.2347 26 11.5143C32.8571 12.2143 32.8571 17.1429 32.8571 17.1429ZM9.05714 5.6L10.7143 7.61429L3.92857 14.4L0 10.1143L1.65714 8.45714L3.92857 10.7143L9.05714 5.6Z" fill="#FFB400"/>
</svg>
