<svg width="80" height="80" viewBox="0 0 80 80" fill="none" xmlns="http://www.w3.org/2000/svg">
<g filter="url(#filter0_d_35_252)">
<circle cx="40" cy="40" r="18" fill="#9F2042"/>
</g>
<path d="M37.94 48.75C36.76 48.75 35.62 48.5 34.55 48L30.89 48.53C30.65 48.57 30.42 48.48 30.25 48.32C30.08 48.15 30 47.91 30.04 47.68L30.6 43.97C30.2 43.01 30 42.01 30 41C30 38.98 30.79 37.06 32.23 35.61C32.52 35.31 33 35.32 33.29 35.61C33.58 35.9 33.59 36.38 33.29 36.67C32.13 37.84 31.49 39.37 31.49 41C31.49 41.87 31.68 42.74 32.06 43.57C32.14 43.74 32.15 43.93 32.09 44.11L31.67 46.91L34.56 46.49C34.71 46.47 34.86 46.49 35 46.56C36.12 47.12 37.37 47.34 38.58 47.22C38.98 47.17 39.36 47.48 39.4 47.89C39.44 48.3 39.14 48.67 38.73 48.71C38.48 48.74 38.21 48.75 37.94 48.75Z" fill="#FFB400"/>
<path d="M50.01 39C50.01 34.73 46.44 31.25 42.06 31.25C39.91 31.25 37.91 32.07 36.43 33.54C34.94 35.01 34.12 36.94 34.12 39C34.12 43.27 37.68 46.75 42.06 46.75C42.46 46.75 42.84 46.72 43.16 46.67C43.17 46.67 43.19 46.67 43.2 46.66C43.99 46.55 44.74 46.33 45.45 46L49.11 46.53C49.35 46.57 49.58 46.49 49.75 46.32C49.91 46.15 49.99 45.91 49.96 45.68L49.4 41.96C49.8 41.01 50.01 40.01 50.01 39ZM39.61 39.25C39.51 39.56 39.21 39.78 38.86 39.78C38.42 39.78 38.06 39.43 38.06 39C38.06 38.57 38.42 38.22 38.86 38.22C38.95 38.22 39.03 38.23 39.11 38.26C39.43 38.36 39.66 38.66 39.66 39C39.66 39.09 39.64 39.17 39.61 39.25ZM42.06 39.78C41.62 39.78 41.26 39.43 41.26 39C41.26 38.57 41.62 38.22 42.06 38.22C42.5 38.22 42.86 38.57 42.86 39C42.86 39.43 42.5 39.78 42.06 39.78ZM45.26 39.78C44.82 39.78 44.46 39.43 44.46 39C44.46 38.57 44.82 38.22 45.26 38.22C45.7 38.22 46.06 38.57 46.06 39C46.06 39.43 45.7 39.78 45.26 39.78Z" fill="#FFB400"/>
<defs>
<filter id="filter0_d_35_252" x="0" y="0" width="80" height="80" filterUnits="userSpaceOnUse" color-interpolation-filters="sRGB">
<feFlood flood-opacity="0" result="BackgroundImageFix"/>
<feColorMatrix in="SourceAlpha" type="matrix" values="0 0 0 0 0 0 0 0 0 0 0 0 0 0 0 0 0 0 127 0" result="hardAlpha"/>
<feMorphology radius="2" operator="dilate" in="SourceAlpha" result="effect1_dropShadow_35_252"/>
<feOffset/>
<feGaussianBlur stdDeviation="10"/>
<feComposite in2="hardAlpha" operator="out"/>
<feColorMatrix type="matrix" values="0 0 0 0 0 0 0 0 0 0.0933036 0 0 0 0 0.1375 0 0 0 0.7 0"/>
<feBlend mode="normal" in2="BackgroundImageFix" result="effect1_dropShadow_35_252"/>
<feBlend mode="normal" in="SourceGraphic" in2="effect1_dropShadow_35_252" result="shape"/>
</filter>
</defs>
</svg>
