<svg width="104" height="104" viewBox="0 0 104 104" fill="none" xmlns="http://www.w3.org/2000/svg">
<g filter="url(#filter0_d_35_605)">
<circle cx="52" cy="52" r="30" fill="#0E79B2"/>
</g>
<path d="M48.5666 66.5832C46.5999 66.5832 44.6999 66.1666 42.9166 65.3332L36.8166 66.2166C36.4166 66.2832 36.0333 66.1332 35.7499 65.8666C35.4666 65.5832 35.3332 65.1832 35.3999 64.7999L36.3333 58.6166C35.6666 57.0166 35.3333 55.3499 35.3333 53.6666C35.3333 50.2999 36.6499 47.0999 39.0499 44.6832C39.5332 44.1832 40.3332 44.1999 40.8166 44.6832C41.2999 45.1666 41.3166 45.9666 40.8166 46.4499C38.8832 48.3999 37.8166 50.9499 37.8166 53.6666C37.8166 55.1166 38.1332 56.5666 38.7666 57.9499C38.8999 58.2332 38.9166 58.5499 38.8166 58.8499L38.1166 63.5166L42.9332 62.8166C43.1832 62.7832 43.4333 62.8166 43.6666 62.9332C45.5333 63.8666 47.6166 64.2332 49.6333 64.0332C50.2999 63.9499 50.9332 64.4666 50.9999 65.1499C51.0666 65.8332 50.5666 66.4499 49.8832 66.5166C49.4666 66.5666 49.0166 66.5832 48.5666 66.5832Z" fill="#FFB400"/>
<path d="M68.6833 50.3334C68.6833 43.2167 62.7333 37.4167 55.4333 37.4167C51.85 37.4167 48.5166 38.7834 46.0499 41.2334C43.5666 43.6834 42.2 46.9001 42.2 50.3334C42.2 57.4501 48.1333 63.2501 55.4333 63.2501C56.1 63.2501 56.7333 63.2001 57.2666 63.1167C57.2833 63.1167 57.3166 63.1167 57.3333 63.1001C58.65 62.9167 59.9 62.5501 61.0833 62.0001L67.1833 62.8834C67.5833 62.9501 67.9666 62.8167 68.25 62.5334C68.5166 62.2501 68.65 61.8501 68.6 61.4667L67.6666 55.2667C68.3333 53.6834 68.6833 52.0167 68.6833 50.3334ZM51.35 50.7501C51.1833 51.2667 50.6833 51.6334 50.1 51.6334C49.3666 51.6334 48.7666 51.0501 48.7666 50.3334C48.7666 49.6167 49.3666 49.0334 50.1 49.0334C50.25 49.0334 50.3833 49.0501 50.5166 49.1001C51.05 49.2667 51.4333 49.7667 51.4333 50.3334C51.4333 50.4834 51.4 50.6167 51.35 50.7501ZM55.4333 51.6334C54.7 51.6334 54.0999 51.0501 54.0999 50.3334C54.0999 49.6167 54.7 49.0334 55.4333 49.0334C56.1666 49.0334 56.7666 49.6167 56.7666 50.3334C56.7666 51.0501 56.1666 51.6334 55.4333 51.6334ZM60.7666 51.6334C60.0333 51.6334 59.4333 51.0501 59.4333 50.3334C59.4333 49.6167 60.0333 49.0334 60.7666 49.0334C61.4999 49.0334 62.1 49.6167 62.1 50.3334C62.1 51.0501 61.4999 51.6334 60.7666 51.6334Z" fill="#FFB400"/>
<defs>
<filter id="filter0_d_35_605" x="0" y="0" width="104" height="104" filterUnits="userSpaceOnUse" color-interpolation-filters="sRGB">
<feFlood flood-opacity="0" result="BackgroundImageFix"/>
<feColorMatrix in="SourceAlpha" type="matrix" values="0 0 0 0 0 0 0 0 0 0 0 0 0 0 0 0 0 0 127 0" result="hardAlpha"/>
<feMorphology radius="2" operator="dilate" in="SourceAlpha" result="effect1_dropShadow_35_605"/>
<feOffset/>
<feGaussianBlur stdDeviation="10"/>
<feComposite in2="hardAlpha" operator="out"/>
<feColorMatrix type="matrix" values="0 0 0 0 0 0 0 0 0 0.0933036 0 0 0 0 0.1375 0 0 0 0.7 0"/>
<feBlend mode="normal" in2="BackgroundImageFix" result="effect1_dropShadow_35_605"/>
<feBlend mode="normal" in="SourceGraphic" in2="effect1_dropShadow_35_605" result="shape"/>
</filter>
</defs>
</svg>
