<svg width="140" height="140" viewBox="0 0 140 140" fill="none" xmlns="http://www.w3.org/2000/svg">
<circle cx="70" cy="70" r="65" stroke="black" stroke-opacity="0.3" stroke-width="10"/>
<path d="M70 5C82.2621 5 94.2742 8.4685 104.649 15.0049C115.024 21.5414 123.338 30.8791 128.631 41.9398C133.925 53.0005 135.982 65.3329 134.564 77.5128C133.147 89.6928 128.313 101.223 120.622 110.773" stroke="#FFB400" stroke-width="10"/>
<path d="M41.2859 81.2389C39.9109 81.2389 38.6893 81.0031 37.6211 80.5315C36.5586 80.0542 35.7234 79.398 35.1154 78.5627C34.5075 77.7275 34.2006 76.7673 34.195 75.6821H38.9677C38.9734 76.0173 39.0756 76.3184 39.2745 76.5855C39.479 76.8468 39.7575 77.0514 40.1097 77.1991C40.462 77.3468 40.8654 77.4207 41.32 77.4207C41.7575 77.4207 42.1438 77.344 42.479 77.1906C42.8143 77.0315 43.0756 76.8127 43.2631 76.5343C43.4506 76.2559 43.5415 75.9377 43.5359 75.5798C43.5415 75.2275 43.4336 74.915 43.212 74.6423C42.9961 74.3696 42.6921 74.1565 42.3001 74.0031C41.908 73.8497 41.4563 73.773 40.945 73.773H39.1722V70.5002H40.945C41.4165 70.5002 41.8313 70.4235 42.1893 70.2701C42.5529 70.1167 42.8342 69.9037 43.033 69.6309C43.2376 69.3582 43.337 69.0457 43.3313 68.6934C43.337 68.3525 43.2546 68.0514 43.0842 67.79C42.9137 67.5287 42.6751 67.3241 42.3683 67.1764C42.0671 67.0287 41.7177 66.9548 41.32 66.9548C40.8881 66.9548 40.5018 67.0315 40.1609 67.1849C39.8256 67.3383 39.5614 67.5514 39.3683 67.8241C39.1751 68.0968 39.0756 68.4093 39.07 68.7616H34.5359C34.5415 67.6934 34.8342 66.7502 35.4137 65.9321C35.9989 65.1139 36.8001 64.4718 37.8171 64.0059C38.8342 63.54 40.0018 63.3071 41.32 63.3071C42.6097 63.3071 43.7489 63.5258 44.7376 63.9633C45.7319 64.4008 46.5075 65.0031 47.0643 65.7701C47.6268 66.5315 47.9052 67.4037 47.8995 68.3866C47.9109 69.3639 47.5756 70.165 46.8938 70.79C46.2177 71.415 45.3597 71.7843 44.32 71.898V72.0343C45.729 72.1877 46.7887 72.6196 47.4989 73.3298C48.2092 74.0343 48.5586 74.9207 48.5472 75.9889C48.5529 77.0116 48.2461 77.9179 47.6268 78.7076C47.0131 79.4974 46.158 80.1167 45.0614 80.5656C43.9705 81.0144 42.712 81.2389 41.2859 81.2389ZM57.6516 81.2389C56.3107 81.2389 55.1204 81.0031 54.0806 80.5315C53.0465 80.0542 52.2312 79.398 51.6346 78.5627C51.0437 77.7275 50.7425 76.7673 50.7312 75.6821H55.3335C55.3505 76.2843 55.5835 76.7644 56.0323 77.1224C56.4869 77.4804 57.0266 77.6593 57.6516 77.6593C58.1346 77.6593 58.5607 77.5571 58.93 77.3525C59.2994 77.1423 59.5891 76.8468 59.7994 76.4662C60.0096 76.0855 60.1119 75.6423 60.1062 75.1366C60.1119 74.6252 60.0096 74.1821 59.7994 73.8071C59.5891 73.4264 59.2994 73.1338 58.93 72.9292C58.5607 72.719 58.1346 72.6139 57.6516 72.6139C57.1516 72.6139 56.6886 72.736 56.2624 72.9804C55.842 73.219 55.5323 73.5514 55.3335 73.9775L51.1744 73.1593L51.8562 63.5457H63.5835V67.3298H55.7425L55.4016 71.1821H55.5039C55.7766 70.6537 56.2482 70.2162 56.9187 69.8696C57.5891 69.5173 58.3675 69.3412 59.2539 69.3412C60.2937 69.3412 61.2198 69.5826 62.0323 70.0656C62.8505 70.5485 63.4954 71.2162 63.967 72.0684C64.4442 72.915 64.68 73.8923 64.6744 75.0002C64.68 76.2162 64.3903 77.2957 63.805 78.2389C63.2255 79.1764 62.4102 79.9122 61.359 80.4463C60.3079 80.9747 59.0721 81.2389 57.6516 81.2389ZM68.8164 81.273C68.1573 81.273 67.592 81.0429 67.1204 80.5826C66.6545 80.1167 66.4244 79.5514 66.43 78.8866C66.4244 78.2389 66.6545 77.6849 67.1204 77.2247C67.592 76.7644 68.1573 76.5343 68.8164 76.5343C69.4414 76.5343 69.9925 76.7644 70.4698 77.2247C70.9528 77.6849 71.1971 78.2389 71.2028 78.8866C71.1971 79.3298 71.0806 79.7332 70.8533 80.0968C70.6317 80.4548 70.342 80.7417 69.984 80.9576C69.6261 81.1679 69.2369 81.273 68.8164 81.273ZM80.0302 81.2389C78.6211 81.2389 77.3626 81.0201 76.2546 80.5826C75.1523 80.1451 74.283 79.5514 73.6467 78.8014C73.016 78.0514 72.7006 77.2048 72.7006 76.2616C72.7006 75.54 72.8796 74.8809 73.2376 74.2843C73.6012 73.6877 74.0898 73.1934 74.7035 72.8014C75.3171 72.4037 76.0018 72.148 76.7575 72.0343V71.898C75.7631 71.7275 74.945 71.2872 74.3029 70.5769C73.6665 69.861 73.3484 69.0173 73.3484 68.0457C73.3484 67.1309 73.6381 66.3184 74.2177 65.6082C74.7972 64.8923 75.5898 64.3298 76.5955 63.9207C77.6012 63.5116 78.7461 63.3071 80.0302 63.3071C81.3143 63.3071 82.4592 63.5144 83.4648 63.9292C84.4705 64.3383 85.2631 64.9008 85.8427 65.6167C86.4222 66.3269 86.712 67.1366 86.712 68.0457C86.712 69.023 86.3881 69.8667 85.7404 70.5769C85.0927 71.2872 84.2802 71.7275 83.3029 71.898V72.0343C84.0529 72.148 84.7347 72.4037 85.3484 72.8014C85.962 73.1934 86.4506 73.6877 86.8143 74.2843C87.1779 74.8809 87.3597 75.54 87.3597 76.2616C87.3597 77.2048 87.0415 78.0514 86.4052 78.8014C85.7745 79.5514 84.9052 80.1451 83.7972 80.5826C82.695 81.0201 81.4393 81.2389 80.0302 81.2389ZM80.0302 77.9662C80.479 77.9662 80.8768 77.8752 81.2234 77.6934C81.57 77.5116 81.8427 77.2616 82.0415 76.9434C82.2461 76.6196 82.3484 76.2559 82.3484 75.8525C82.3484 75.4491 82.2461 75.0912 82.0415 74.7787C81.8427 74.4662 81.57 74.2218 81.2234 74.0457C80.8768 73.8639 80.479 73.773 80.0302 73.773C79.587 73.773 79.1893 73.8639 78.837 74.0457C78.4904 74.2218 78.2148 74.4662 78.0103 74.7787C77.8114 75.0912 77.712 75.4491 77.712 75.8525C77.712 76.2559 77.8114 76.6167 78.0103 76.9349C78.2148 77.2531 78.4904 77.5059 78.837 77.6934C79.1893 77.8752 79.587 77.9662 80.0302 77.9662ZM80.0302 70.5002C80.4279 70.5002 80.7802 70.4179 81.087 70.2531C81.3938 70.0883 81.6353 69.861 81.8114 69.5713C81.9876 69.2815 82.0756 68.9548 82.0756 68.5912C82.0756 68.2275 81.9876 67.9065 81.8114 67.6281C81.6353 67.344 81.3938 67.1224 81.087 66.9633C80.7802 66.7985 80.4279 66.7162 80.0302 66.7162C79.6381 66.7162 79.2859 66.7985 78.9734 66.9633C78.6665 67.1224 78.4251 67.344 78.2489 67.6281C78.0728 67.9065 77.9847 68.2275 77.9847 68.5912C77.9847 68.9548 78.0728 69.2815 78.2489 69.5713C78.4251 69.8554 78.6665 70.0826 78.9734 70.2531C79.2859 70.4179 79.6381 70.5002 80.0302 70.5002ZM99.4641 77.7275V76.8071C99.4641 76.0684 99.6232 75.3866 99.9414 74.7616C100.265 74.1366 100.734 73.6338 101.348 73.2531C101.961 72.8724 102.708 72.6821 103.589 72.6821C104.493 72.6821 105.251 72.8696 105.865 73.2446C106.484 73.6196 106.953 74.1196 107.271 74.7446C107.589 75.3696 107.748 76.0571 107.748 76.8071V77.7275C107.748 78.4662 107.586 79.148 107.262 79.773C106.944 80.398 106.475 80.9008 105.856 81.2815C105.237 81.6622 104.481 81.8525 103.589 81.8525C102.697 81.8525 101.944 81.6622 101.331 81.2815C100.717 80.9008 100.251 80.398 99.9329 79.773C99.6204 79.148 99.4641 78.4662 99.4641 77.7275ZM102.43 76.8071V77.7275C102.43 78.0514 102.51 78.3724 102.669 78.6906C102.833 79.0031 103.14 79.1593 103.589 79.1593C104.061 79.1593 104.37 79.0059 104.518 78.6991C104.672 78.3923 104.748 78.0684 104.748 77.7275V76.8071C104.748 76.4662 104.677 76.1366 104.535 75.8184C104.393 75.5002 104.078 75.3412 103.589 75.3412C103.14 75.3412 102.833 75.5002 102.669 75.8184C102.51 76.1366 102.43 76.4662 102.43 76.8071ZM90.3278 67.7389V66.8184C90.3278 66.0684 90.4897 65.3809 90.8136 64.7559C91.1431 64.1309 91.6147 63.6309 92.2283 63.2559C92.842 62.8809 93.5835 62.6934 94.4528 62.6934C95.3562 62.6934 96.1147 62.8809 96.7283 63.2559C97.3477 63.6309 97.8164 64.1309 98.1346 64.7559C98.4528 65.3809 98.6119 66.0684 98.6119 66.8184V67.7389C98.6119 68.4889 98.4499 69.1735 98.1261 69.7929C97.8079 70.4122 97.3391 70.9065 96.7198 71.2758C96.1005 71.6451 95.3448 71.8298 94.4528 71.8298C93.5607 71.8298 92.8079 71.6423 92.1942 71.2673C91.5806 70.8923 91.1147 70.3951 90.7965 69.7758C90.484 69.1565 90.3278 68.4775 90.3278 67.7389ZM93.3278 66.8184V67.7389C93.3278 68.0798 93.4073 68.4037 93.5664 68.7105C93.7255 69.0173 94.021 69.1707 94.4528 69.1707C94.9244 69.1707 95.234 69.0173 95.3817 68.7105C95.5352 68.4037 95.6119 68.0798 95.6119 67.7389V66.8184C95.6119 66.4775 95.5408 66.148 95.3988 65.8298C95.2567 65.5116 94.9414 65.3525 94.4528 65.3525C94.0039 65.3525 93.7028 65.5173 93.5494 65.8468C93.4016 66.1707 93.3278 66.4946 93.3278 66.8184ZM91.7766 81.0002L103.777 63.5457H106.197L94.1971 81.0002H91.7766Z" fill="white"/>
</svg>
