<svg width="140" height="140" viewBox="0 0 140 140" fill="none" xmlns="http://www.w3.org/2000/svg">
<circle cx="70" cy="70" r="65" stroke="black" stroke-opacity="0.3" stroke-width="10"/>
<path d="M70 5C79.7555 5 89.3858 7.19586 98.177 11.4248C106.968 15.6537 114.695 21.8072 120.784 29.4291C126.873 37.0509 131.168 45.9456 133.351 55.4536C135.535 64.9617 135.55 74.8392 133.395 84.3538" stroke="#FFB400" stroke-width="10"/>
<path d="M32.3857 79V75.5909L38.897 70.2045C39.3289 69.8466 39.6982 69.5114 40.005 69.1989C40.3175 68.8807 40.5561 68.554 40.7209 68.2188C40.8914 67.8835 40.9766 67.5114 40.9766 67.1023C40.9766 66.6534 40.88 66.2699 40.6868 65.9517C40.4993 65.6335 40.238 65.3892 39.9027 65.2188C39.5675 65.0426 39.1811 64.9545 38.7436 64.9545C38.3061 64.9545 37.9198 65.0426 37.5845 65.2188C37.255 65.3949 36.9993 65.6534 36.8175 65.9943C36.6357 66.3352 36.5448 66.75 36.5448 67.2386H32.0448C32.0448 66.0114 32.3203 64.9545 32.8715 64.0682C33.4226 63.1818 34.201 62.5 35.2067 62.0227C36.2124 61.5455 37.3914 61.3068 38.7436 61.3068C40.1414 61.3068 41.3516 61.5312 42.3743 61.9801C43.4027 62.4233 44.1953 63.0483 44.7522 63.8551C45.3147 64.6619 45.5959 65.608 45.5959 66.6932C45.5959 67.3636 45.4567 68.0312 45.1783 68.696C44.8999 69.3551 44.3999 70.0852 43.6783 70.8864C42.9567 71.6875 41.9311 72.642 40.6016 73.75L38.9652 75.1136V75.2159H45.7834V79H32.3857ZM55.0263 79.2386C53.6172 79.2386 52.3587 79.0199 51.2507 78.5824C50.1485 78.1449 49.2791 77.5511 48.6428 76.8011C48.0121 76.0511 47.6968 75.2045 47.6968 74.2614C47.6968 73.5398 47.8757 72.8807 48.2337 72.2841C48.5973 71.6875 49.086 71.1932 49.6996 70.8011C50.3132 70.4034 50.9979 70.1477 51.7536 70.0341V69.8977C50.7593 69.7273 49.9411 69.2869 49.299 68.5767C48.6627 67.8608 48.3445 67.017 48.3445 66.0455C48.3445 65.1307 48.6343 64.3182 49.2138 63.608C49.7934 62.892 50.586 62.3295 51.5917 61.9205C52.5973 61.5114 53.7422 61.3068 55.0263 61.3068C56.3104 61.3068 57.4553 61.5142 58.461 61.929C59.4667 62.3381 60.2593 62.9006 60.8388 63.6165C61.4184 64.3267 61.7081 65.1364 61.7081 66.0455C61.7081 67.0227 61.3843 67.8665 60.7365 68.5767C60.0888 69.2869 59.2763 69.7273 58.299 69.8977V70.0341C59.049 70.1477 59.7309 70.4034 60.3445 70.8011C60.9581 71.1932 61.4468 71.6875 61.8104 72.2841C62.174 72.8807 62.3559 73.5398 62.3559 74.2614C62.3559 75.2045 62.0377 76.0511 61.4013 76.8011C60.7706 77.5511 59.9013 78.1449 58.7934 78.5824C57.6911 79.0199 56.4354 79.2386 55.0263 79.2386ZM55.0263 75.9659C55.4752 75.9659 55.8729 75.875 56.2195 75.6932C56.5661 75.5114 56.8388 75.2614 57.0377 74.9432C57.2422 74.6193 57.3445 74.2557 57.3445 73.8523C57.3445 73.4489 57.2422 73.0909 57.0377 72.7784C56.8388 72.4659 56.5661 72.2216 56.2195 72.0455C55.8729 71.8636 55.4752 71.7727 55.0263 71.7727C54.5831 71.7727 54.1854 71.8636 53.8331 72.0455C53.4865 72.2216 53.211 72.4659 53.0064 72.7784C52.8076 73.0909 52.7081 73.4489 52.7081 73.8523C52.7081 74.2557 52.8076 74.6165 53.0064 74.9347C53.211 75.2528 53.4865 75.5057 53.8331 75.6932C54.1854 75.875 54.5831 75.9659 55.0263 75.9659ZM55.0263 68.5C55.424 68.5 55.7763 68.4176 56.0831 68.2528C56.3899 68.0881 56.6314 67.8608 56.8076 67.571C56.9837 67.2812 57.0718 66.9545 57.0718 66.5909C57.0718 66.2273 56.9837 65.9062 56.8076 65.6278C56.6314 65.3437 56.3899 65.1222 56.0831 64.9631C55.7763 64.7983 55.424 64.7159 55.0263 64.7159C54.6343 64.7159 54.282 64.7983 53.9695 64.9631C53.6627 65.1222 53.4212 65.3437 53.2451 65.6278C53.0689 65.9062 52.9809 66.2273 52.9809 66.5909C52.9809 66.9545 53.0689 67.2812 53.2451 67.571C53.4212 67.8551 53.6627 68.0824 53.9695 68.2528C54.282 68.4176 54.6343 68.5 55.0263 68.5ZM66.5938 79.2727C65.9347 79.2727 65.3693 79.0426 64.8978 78.5824C64.4318 78.1165 64.2017 77.5511 64.2074 76.8864C64.2017 76.2386 64.4318 75.6847 64.8978 75.2244C65.3693 74.7642 65.9347 74.5341 66.5938 74.5341C67.2188 74.5341 67.7699 74.7642 68.2472 75.2244C68.7301 75.6847 68.9745 76.2386 68.9801 76.8864C68.9745 77.3295 68.858 77.733 68.6307 78.0966C68.4091 78.4545 68.1193 78.7415 67.7614 78.9574C67.4034 79.1676 67.0142 79.2727 66.5938 79.2727ZM78.4915 79.2386C77.1506 79.2386 75.9603 79.0028 74.9205 78.5312C73.8864 78.054 73.0711 77.3977 72.4745 76.5625C71.8836 75.7273 71.5824 74.767 71.5711 73.6818H76.1733C76.1904 74.2841 76.4233 74.7642 76.8722 75.1222C77.3267 75.4801 77.8665 75.6591 78.4915 75.6591C78.9745 75.6591 79.4006 75.5568 79.7699 75.3523C80.1392 75.142 80.429 74.8466 80.6392 74.4659C80.8495 74.0852 80.9517 73.642 80.9461 73.1364C80.9517 72.625 80.8495 72.1818 80.6392 71.8068C80.429 71.4261 80.1392 71.1335 79.7699 70.929C79.4006 70.7187 78.9745 70.6136 78.4915 70.6136C77.9915 70.6136 77.5284 70.7358 77.1023 70.9801C76.6818 71.2188 76.3722 71.5511 76.1733 71.9773L72.0142 71.1591L72.6961 61.5455H84.4233V65.3295H76.5824L76.2415 69.1818H76.3438C76.6165 68.6534 77.0881 68.2159 77.7586 67.8693C78.429 67.517 79.2074 67.3409 80.0938 67.3409C81.1336 67.3409 82.0597 67.5824 82.8722 68.0653C83.6904 68.5483 84.3353 69.2159 84.8068 70.0682C85.2841 70.9148 85.5199 71.892 85.5142 73C85.5199 74.2159 85.2301 75.2955 84.6449 76.2386C84.0654 77.1761 83.25 77.9119 82.1989 78.446C81.1478 78.9744 79.912 79.2386 78.4915 79.2386ZM97.5462 75.7273V74.8068C97.5462 74.0682 97.7053 73.3864 98.0235 72.7614C98.3473 72.1364 98.8161 71.6335 99.4297 71.2528C100.043 70.8722 100.791 70.6818 101.671 70.6818C102.575 70.6818 103.333 70.8693 103.947 71.2443C104.566 71.6193 105.035 72.1193 105.353 72.7443C105.671 73.3693 105.83 74.0568 105.83 74.8068V75.7273C105.83 76.4659 105.668 77.1477 105.344 77.7727C105.026 78.3977 104.558 78.9006 103.938 79.2812C103.319 79.6619 102.563 79.8523 101.671 79.8523C100.779 79.8523 100.026 79.6619 99.4127 79.2812C98.799 78.9006 98.3331 78.3977 98.0149 77.7727C97.7024 77.1477 97.5462 76.4659 97.5462 75.7273ZM100.512 74.8068V75.7273C100.512 76.0511 100.592 76.3722 100.751 76.6903C100.916 77.0028 101.222 77.1591 101.671 77.1591C102.143 77.1591 102.452 77.0057 102.6 76.6989C102.754 76.392 102.83 76.0682 102.83 75.7273V74.8068C102.83 74.4659 102.759 74.1364 102.617 73.8182C102.475 73.5 102.16 73.3409 101.671 73.3409C101.222 73.3409 100.916 73.5 100.751 73.8182C100.592 74.1364 100.512 74.4659 100.512 74.8068ZM88.4098 65.7386V64.8182C88.4098 64.0682 88.5718 63.3807 88.8956 62.7557C89.2252 62.1307 89.6968 61.6307 90.3104 61.2557C90.924 60.8807 91.6655 60.6932 92.5348 60.6932C93.4382 60.6932 94.1968 60.8807 94.8104 61.2557C95.4297 61.6307 95.8985 62.1307 96.2167 62.7557C96.5348 63.3807 96.6939 64.0682 96.6939 64.8182V65.7386C96.6939 66.4886 96.532 67.1733 96.2081 67.7926C95.8899 68.4119 95.4212 68.9062 94.8019 69.2756C94.1826 69.6449 93.4269 69.8295 92.5348 69.8295C91.6428 69.8295 90.8899 69.642 90.2763 69.267C89.6627 68.892 89.1968 68.3949 88.8786 67.7756C88.5661 67.1562 88.4098 66.4773 88.4098 65.7386ZM91.4098 64.8182V65.7386C91.4098 66.0795 91.4894 66.4034 91.6485 66.7102C91.8076 67.017 92.103 67.1705 92.5348 67.1705C93.0064 67.1705 93.3161 67.017 93.4638 66.7102C93.6172 66.4034 93.6939 66.0795 93.6939 65.7386V64.8182C93.6939 64.4773 93.6229 64.1477 93.4809 63.8295C93.3388 63.5114 93.0235 63.3523 92.5348 63.3523C92.086 63.3523 91.7848 63.517 91.6314 63.8466C91.4837 64.1705 91.4098 64.4943 91.4098 64.8182ZM89.8587 79L101.859 61.5455H104.279L92.2792 79H89.8587Z" fill="white"/>
</svg>
