<svg width="140" height="140" viewBox="0 0 140 140" fill="none" xmlns="http://www.w3.org/2000/svg">
<circle cx="70" cy="70" r="65" stroke="black" stroke-opacity="0.3" stroke-width="10"/>
<path d="M70 5C79.8896 5 89.6487 7.25663 98.5344 11.5981C107.42 15.9395 115.198 22.2513 121.276 30.0528C127.354 37.8542 131.571 46.9397 133.607 56.6174C135.644 66.2951 135.445 76.3098 133.026 85.899C130.607 95.4882 126.031 104.399 119.648 111.953C113.265 119.507 105.243 125.504 96.1917 129.489C87.1405 133.474 77.2994 135.342 67.4176 134.949C57.5359 134.556 47.8741 131.913 39.1679 127.222" stroke="#FFB400" stroke-width="10"/>
<path d="M41.3549 79.2386C40.014 79.2386 38.8236 79.0028 37.7839 78.5312C36.7498 78.054 35.9344 77.3977 35.3378 76.5625C34.7469 75.7273 34.4458 74.767 34.4344 73.6818H39.0367C39.0537 74.2841 39.2867 74.7642 39.7356 75.1222C40.1901 75.4801 40.7299 75.6591 41.3549 75.6591C41.8378 75.6591 42.264 75.5568 42.6333 75.3523C43.0026 75.142 43.2924 74.8466 43.5026 74.4659C43.7128 74.0852 43.8151 73.642 43.8094 73.1364C43.8151 72.625 43.7128 72.1818 43.5026 71.8068C43.2924 71.4261 43.0026 71.1335 42.6333 70.929C42.264 70.7187 41.8378 70.6136 41.3549 70.6136C40.8549 70.6136 40.3918 70.7358 39.9657 70.9801C39.5452 71.2188 39.2356 71.5511 39.0367 71.9773L34.8776 71.1591L35.5594 61.5455H47.2867V65.3295H39.4458L39.1049 69.1818H39.2072C39.4799 68.6534 39.9515 68.2159 40.6219 67.8693C41.2924 67.517 42.0708 67.3409 42.9572 67.3409C43.9969 67.3409 44.9231 67.5824 45.7356 68.0653C46.5537 68.5483 47.1986 69.2159 47.6702 70.0682C48.1475 70.9148 48.3833 71.892 48.3776 73C48.3833 74.2159 48.0935 75.2955 47.5083 76.2386C46.9287 77.1761 46.1134 77.9119 45.0623 78.446C44.0111 78.9744 42.7753 79.2386 41.3549 79.2386ZM51.205 79L58.0573 65.4318V65.3295H50.0118V61.5455H62.9664V65.3295L56.08 79H51.205ZM64.6603 79.2727C64.0012 79.2727 63.4358 79.0426 62.9643 78.5824C62.4983 78.1165 62.2682 77.5511 62.2739 76.8864C62.2682 76.2386 62.4983 75.6847 62.9643 75.2244C63.4358 74.7642 64.0012 74.5341 64.6603 74.5341C65.2853 74.5341 65.8364 74.7642 66.3137 75.2244C66.7966 75.6847 67.041 76.2386 67.0466 76.8864C67.041 77.3295 66.9245 77.733 66.6972 78.0966C66.4756 78.4545 66.1858 78.7415 65.8279 78.9574C65.4699 79.1676 65.0807 79.2727 64.6603 79.2727ZM75.9657 61.3068C76.9827 61.3068 77.9458 61.4687 78.8549 61.7926C79.764 62.1108 80.5679 62.6136 81.2668 63.3011C81.9714 63.9886 82.5225 64.8864 82.9202 65.9943C83.3236 67.0966 83.5282 68.4318 83.5339 70C83.5395 71.4318 83.3606 72.7187 82.9969 73.8608C82.639 74.9972 82.1248 75.9659 81.4543 76.767C80.7895 77.5682 79.9884 78.1818 79.0509 78.608C78.1191 79.0284 77.0793 79.2386 75.9316 79.2386C74.6418 79.2386 73.5083 78.9915 72.531 78.4972C71.5537 78.0028 70.7753 77.3381 70.1958 76.5028C69.6162 75.6676 69.2782 74.7386 69.1816 73.7159H73.852C73.9657 74.2443 74.2157 74.6278 74.602 74.8665C74.9884 75.0994 75.4316 75.2159 75.9316 75.2159C76.9316 75.2159 77.6617 74.7841 78.1219 73.9205C78.5878 73.0511 78.8236 71.892 78.8293 70.4432H78.727C78.5054 70.9773 78.1702 71.4347 77.7214 71.8153C77.2725 72.196 76.7498 72.4886 76.1532 72.6932C75.5566 72.8977 74.9259 73 74.2611 73C73.21 73 72.2895 72.7642 71.4998 72.2926C70.71 71.8153 70.0935 71.1648 69.6503 70.3409C69.2072 69.5114 68.9827 68.5682 68.977 67.5114C68.9714 66.2727 69.264 65.1875 69.8549 64.2557C70.4458 63.3239 71.2668 62.5994 72.3179 62.0824C73.3691 61.5653 74.585 61.3068 75.9657 61.3068ZM75.9998 64.8864C75.5282 64.8864 75.1077 64.9943 74.7384 65.2102C74.3748 65.4261 74.0878 65.7187 73.8776 66.0881C73.6731 66.4574 73.5736 66.875 73.5793 67.3409C73.585 67.8068 73.6901 68.2244 73.8947 68.5938C74.1049 68.9631 74.389 69.2557 74.7469 69.4716C75.1106 69.6875 75.5282 69.7955 75.9998 69.7955C76.3464 69.7955 76.6674 69.7358 76.9628 69.6165C77.2583 69.4915 77.514 69.3182 77.7299 69.0966C77.9515 68.8693 78.1219 68.608 78.2412 68.3125C78.3662 68.0114 78.4259 67.6875 78.4202 67.3409C78.4145 66.875 78.3066 66.4574 78.0964 66.0881C77.8861 65.7187 77.5992 65.4261 77.2356 65.2102C76.8719 64.9943 76.46 64.8864 75.9998 64.8864ZM95.5658 75.7273V74.8068C95.5658 74.0682 95.7249 73.3864 96.0431 72.7614C96.367 72.1364 96.8357 71.6335 97.4493 71.2528C98.063 70.8722 98.8101 70.6818 99.6908 70.6818C100.594 70.6818 101.353 70.8693 101.966 71.2443C102.586 71.6193 103.054 72.1193 103.373 72.7443C103.691 73.3693 103.85 74.0568 103.85 74.8068V75.7273C103.85 76.4659 103.688 77.1477 103.364 77.7727C103.046 78.3977 102.577 78.9006 101.958 79.2812C101.339 79.6619 100.583 79.8523 99.6908 79.8523C98.7988 79.8523 98.0459 79.6619 97.4323 79.2812C96.8187 78.9006 96.3528 78.3977 96.0346 77.7727C95.7221 77.1477 95.5658 76.4659 95.5658 75.7273ZM98.5317 74.8068V75.7273C98.5317 76.0511 98.6113 76.3722 98.7704 76.6903C98.9351 77.0028 99.242 77.1591 99.6908 77.1591C100.162 77.1591 100.472 77.0057 100.62 76.6989C100.773 76.392 100.85 76.0682 100.85 75.7273V74.8068C100.85 74.4659 100.779 74.1364 100.637 73.8182C100.495 73.5 100.179 73.3409 99.6908 73.3409C99.242 73.3409 98.9351 73.5 98.7704 73.8182C98.6113 74.1364 98.5317 74.4659 98.5317 74.8068ZM86.4295 65.7386V64.8182C86.4295 64.0682 86.5914 63.3807 86.9152 62.7557C87.2448 62.1307 87.7164 61.6307 88.33 61.2557C88.9437 60.8807 89.6851 60.6932 90.5545 60.6932C91.4579 60.6932 92.2164 60.8807 92.83 61.2557C93.4493 61.6307 93.9181 62.1307 94.2363 62.7557C94.5545 63.3807 94.7135 64.0682 94.7135 64.8182V65.7386C94.7135 66.4886 94.5516 67.1733 94.2278 67.7926C93.9096 68.4119 93.4408 68.9062 92.8215 69.2756C92.2022 69.6449 91.4465 69.8295 90.5545 69.8295C89.6624 69.8295 88.9096 69.642 88.2959 69.267C87.6823 68.892 87.2164 68.3949 86.8982 67.7756C86.5857 67.1562 86.4295 66.4773 86.4295 65.7386ZM89.4295 64.8182V65.7386C89.4295 66.0795 89.509 66.4034 89.6681 66.7102C89.8272 67.017 90.1226 67.1705 90.5545 67.1705C91.026 67.1705 91.3357 67.017 91.4834 66.7102C91.6368 66.4034 91.7135 66.0795 91.7135 65.7386V64.8182C91.7135 64.4773 91.6425 64.1477 91.5005 63.8295C91.3584 63.5114 91.0431 63.3523 90.5545 63.3523C90.1056 63.3523 89.8045 63.517 89.651 63.8466C89.5033 64.1705 89.4295 64.4943 89.4295 64.8182ZM87.8783 79L99.8783 61.5455H102.299L90.2988 79H87.8783Z" fill="white"/>
</svg>
