<svg width="140" height="140" viewBox="0 0 140 140" fill="none" xmlns="http://www.w3.org/2000/svg">
<circle cx="70" cy="70" r="65" stroke="black" stroke-opacity="0.3" stroke-width="10"/>
<path d="M70 5C81.5137 5 92.8207 8.05825 102.765 13.862C112.709 19.6657 120.932 28.0065 126.595 38.0314C132.258 48.0563 135.156 59.4054 134.994 70.9179C134.831 82.4304 131.613 93.6931 125.67 103.554C119.726 113.415 111.27 121.52 101.166 127.041C91.0624 132.561 79.6734 135.299 68.1644 134.974C56.6553 134.649 45.4391 131.273 35.6631 125.19C25.887 119.108 17.902 110.538 12.5246 100.358" stroke="#FFB400" stroke-width="10"/>
<path d="M41.9599 78.9054C40.9428 78.9054 39.9769 78.7463 39.0621 78.4281C38.153 78.1042 37.3462 77.5957 36.6417 76.9025C35.9371 76.2094 35.3832 75.306 34.9797 74.1923C34.582 73.0787 34.386 71.7292 34.3917 70.144C34.3974 68.7292 34.5792 67.4565 34.9371 66.3258C35.3008 65.1952 35.815 64.2321 36.4797 63.4366C37.1502 62.6412 37.9513 62.0332 38.8832 61.6128C39.815 61.1866 40.8519 60.9736 41.9939 60.9736C43.278 60.9736 44.4087 61.2207 45.386 61.715C46.3633 62.2094 47.1417 62.8713 47.7212 63.7008C48.3064 64.5247 48.6474 65.4338 48.7439 66.4281H44.0735C43.9655 65.9338 43.7155 65.573 43.3235 65.3457C42.9371 65.1128 42.4939 64.9963 41.9939 64.9963C40.9996 64.9963 40.2695 65.4281 39.8036 66.2917C39.3434 67.1554 39.1076 68.2917 39.0962 69.7008H39.1985C39.4201 69.1667 39.7553 68.7094 40.2042 68.3287C40.653 67.948 41.1758 67.6554 41.7724 67.4508C42.3689 67.2463 42.9996 67.144 43.6644 67.144C44.7212 67.144 45.6445 67.3827 46.4343 67.8599C47.2297 68.3372 47.8491 68.9906 48.2922 69.8202C48.7354 70.6497 48.9542 71.5986 48.9485 72.6667C48.9542 73.9167 48.6587 75.0105 48.0621 75.948C47.4712 76.8855 46.6502 77.6128 45.5991 78.1298C44.5479 78.6469 43.3349 78.9054 41.9599 78.9054ZM41.9258 75.3258C42.3974 75.3258 42.815 75.2179 43.1786 75.002C43.5479 74.7861 43.8349 74.4906 44.0394 74.1156C44.2496 73.7406 44.3519 73.3145 44.3462 72.8372C44.3519 72.3542 44.2496 71.9281 44.0394 71.5588C43.8349 71.1838 43.5479 70.8883 43.1786 70.6724C42.815 70.4565 42.3974 70.3486 41.9258 70.3486C41.5792 70.3486 41.2582 70.4111 40.9627 70.5361C40.6729 70.6554 40.4201 70.8287 40.2042 71.056C39.9883 71.2775 39.8178 71.5417 39.6928 71.8486C39.5735 72.1497 39.511 72.4792 39.5053 72.8372C39.511 73.3145 39.6189 73.7406 39.8292 74.1156C40.0394 74.4906 40.3263 74.7861 40.69 75.002C41.0536 75.2179 41.4655 75.3258 41.9258 75.3258ZM51.8782 78.6667L58.7305 65.0986V64.9963H50.685V61.2122H63.6395V64.9963L56.7532 78.6667H51.8782ZM65.3334 78.9395C64.6743 78.9395 64.109 78.7094 63.6374 78.2491C63.1715 77.7832 62.9414 77.2179 62.9471 76.5531C62.9414 75.9054 63.1715 75.3514 63.6374 74.8912C64.109 74.431 64.6743 74.2008 65.3334 74.2008C65.9584 74.2008 66.5096 74.431 66.9868 74.8912C67.4698 75.3514 67.7141 75.9054 67.7198 76.5531C67.7141 76.9963 67.5976 77.3997 67.3704 77.7633C67.1488 78.1213 66.859 78.4082 66.501 78.6241C66.1431 78.8344 65.7539 78.9395 65.3334 78.9395ZM76.5685 78.9054C75.1935 78.9054 73.9719 78.6696 72.9037 78.198C71.8412 77.7207 71.006 77.0645 70.3981 76.2292C69.7901 75.394 69.4833 74.4338 69.4776 73.3486H74.2503C74.256 73.6838 74.3583 73.9849 74.5572 74.252C74.7617 74.5133 75.0401 74.7179 75.3924 74.8656C75.7447 75.0133 76.1481 75.0872 76.6026 75.0872C77.0401 75.0872 77.4265 75.0105 77.7617 74.8571C78.0969 74.698 78.3583 74.4792 78.5458 74.2008C78.7333 73.9224 78.8242 73.6042 78.8185 73.2463C78.8242 72.894 78.7162 72.5815 78.4947 72.3088C78.2787 72.0361 77.9748 71.823 77.5827 71.6696C77.1907 71.5162 76.739 71.4395 76.2276 71.4395H74.4549V68.1667H76.2276C76.6992 68.1667 77.114 68.09 77.4719 67.9366C77.8356 67.7832 78.1168 67.5702 78.3157 67.2974C78.5202 67.0247 78.6197 66.7122 78.614 66.3599C78.6197 66.019 78.5373 65.7179 78.3668 65.4565C78.1964 65.1952 77.9577 64.9906 77.6509 64.8429C77.3498 64.6952 77.0003 64.6213 76.6026 64.6213C76.1708 64.6213 75.7844 64.698 75.4435 64.8514C75.1083 65.0048 74.8441 65.2179 74.6509 65.4906C74.4577 65.7633 74.3583 66.0758 74.3526 66.4281H69.8185C69.8242 65.3599 70.1168 64.4167 70.6964 63.5986C71.2816 62.7804 72.0827 62.1383 73.0998 61.6724C74.1168 61.2065 75.2844 60.9736 76.6026 60.9736C77.8924 60.9736 79.0316 61.1923 80.0202 61.6298C81.0145 62.0673 81.7901 62.6696 82.3469 63.4366C82.9094 64.198 83.1878 65.0702 83.1822 66.0531C83.1935 67.0304 82.8583 67.8315 82.1765 68.4565C81.5003 69.0815 80.6424 69.4508 79.6026 69.5645V69.7008C81.0117 69.8542 82.0714 70.2861 82.7816 70.9963C83.4918 71.7008 83.8412 72.5872 83.8299 73.6554C83.8356 74.6781 83.5287 75.5844 82.9094 76.3741C82.2958 77.1639 81.4407 77.7832 80.3441 78.2321C79.2532 78.681 77.9947 78.9054 76.5685 78.9054ZM95.9343 75.394V74.4736C95.9343 73.7349 96.0934 73.0531 96.4116 72.4281C96.7354 71.8031 97.2042 71.3003 97.8178 70.9196C98.4314 70.5389 99.1786 70.3486 100.059 70.3486C100.963 70.3486 101.721 70.5361 102.335 70.9111C102.954 71.2861 103.423 71.7861 103.741 72.4111C104.059 73.0361 104.218 73.7236 104.218 74.4736V75.394C104.218 76.1327 104.056 76.8145 103.733 77.4395C103.414 78.0645 102.946 78.5673 102.326 78.948C101.707 79.3287 100.951 79.519 100.059 79.519C99.1672 79.519 98.4144 79.3287 97.8008 78.948C97.1871 78.5673 96.7212 78.0645 96.403 77.4395C96.0905 76.8145 95.9343 76.1327 95.9343 75.394ZM98.9002 74.4736V75.394C98.9002 75.7179 98.9797 76.0389 99.1388 76.3571C99.3036 76.6696 99.6104 76.8258 100.059 76.8258C100.531 76.8258 100.841 76.6724 100.988 76.3656C101.142 76.0588 101.218 75.7349 101.218 75.394V74.4736C101.218 74.1327 101.147 73.8031 101.005 73.4849C100.863 73.1667 100.548 73.0077 100.059 73.0077C99.6104 73.0077 99.3036 73.1667 99.1388 73.4849C98.9797 73.8031 98.9002 74.1327 98.9002 74.4736ZM86.7979 65.4054V64.4849C86.7979 63.7349 86.9599 63.0474 87.2837 62.4224C87.6133 61.7974 88.0849 61.2974 88.6985 60.9224C89.3121 60.5474 90.0536 60.3599 90.9229 60.3599C91.8263 60.3599 92.5849 60.5474 93.1985 60.9224C93.8178 61.2974 94.2866 61.7974 94.6047 62.4224C94.9229 63.0474 95.082 63.7349 95.082 64.4849V65.4054C95.082 66.1554 94.9201 66.84 94.5962 67.4594C94.278 68.0787 93.8093 68.573 93.19 68.9423C92.5707 69.3116 91.815 69.4963 90.9229 69.4963C90.0309 69.4963 89.278 69.3088 88.6644 68.9338C88.0508 68.5588 87.5849 68.0616 87.2667 67.4423C86.9542 66.823 86.7979 66.144 86.7979 65.4054ZM89.7979 64.4849V65.4054C89.7979 65.7463 89.8775 66.0702 90.0366 66.377C90.1957 66.6838 90.4911 66.8372 90.9229 66.8372C91.3945 66.8372 91.7042 66.6838 91.8519 66.377C92.0053 66.0702 92.082 65.7463 92.082 65.4054V64.4849C92.082 64.144 92.011 63.8145 91.8689 63.4963C91.7269 63.1781 91.4116 63.019 90.9229 63.019C90.4741 63.019 90.1729 63.1838 90.0195 63.5133C89.8718 63.8372 89.7979 64.1611 89.7979 64.4849ZM88.2468 78.6667L100.247 61.2122H102.667L90.6672 78.6667H88.2468Z" fill="white"/>
</svg>
