<svg width="140" height="140" viewBox="0 0 140 140" fill="none" xmlns="http://www.w3.org/2000/svg">
<circle cx="70" cy="70" r="65" stroke="black" stroke-opacity="0.3" stroke-width="10"/>
<path d="M70 5C84.1842 5 97.9791 9.63974 109.28 18.2115C120.582 26.7832 128.769 38.8163 132.593 52.4753C136.417 66.1343 135.669 80.6692 130.461 93.863C125.254 107.057 115.874 118.185 103.752 125.55C91.6294 132.916 77.4308 136.113 63.3217 134.656C49.2125 133.199 35.9673 127.166 25.6066 117.479C15.2458 107.791 8.33831 94.9805 5.9377 81.0009C3.53708 67.0213 5.77517 52.6402 12.3106 40.0513" stroke="#FFB400" stroke-width="10"/>
<path d="M41.8089 80.9054C40.3998 80.9054 39.1413 80.6866 38.0333 80.2491C36.931 79.8116 36.0617 79.2179 35.4253 78.4679C34.7947 77.7179 34.4793 76.8713 34.4793 75.9281C34.4793 75.2065 34.6583 74.5474 35.0163 73.9508C35.3799 73.3542 35.8685 72.8599 36.4822 72.4679C37.0958 72.0702 37.7805 71.8145 38.5361 71.7008V71.5645C37.5418 71.394 36.7236 70.9537 36.0816 70.2435C35.4452 69.5275 35.1271 68.6838 35.1271 67.7122C35.1271 66.7974 35.4168 65.9849 35.9964 65.2747C36.5759 64.5588 37.3685 63.9963 38.3742 63.5872C39.3799 63.1781 40.5248 62.9736 41.8089 62.9736C43.093 62.9736 44.2378 63.181 45.2435 63.5957C46.2492 64.0048 47.0418 64.5673 47.6214 65.2832C48.2009 65.9935 48.4907 66.8031 48.4907 67.7122C48.4907 68.6895 48.1668 69.5332 47.5191 70.2435C46.8714 70.9537 46.0589 71.394 45.0816 71.5645V71.7008C45.8316 71.8145 46.5134 72.0702 47.1271 72.4679C47.7407 72.8599 48.2293 73.3542 48.593 73.9508C48.9566 74.5474 49.1384 75.2065 49.1384 75.9281C49.1384 76.8713 48.8202 77.7179 48.1839 78.4679C47.5532 79.2179 46.6839 79.8116 45.5759 80.2491C44.4736 80.6866 43.218 80.9054 41.8089 80.9054ZM41.8089 77.6327C42.2577 77.6327 42.6555 77.5417 43.0021 77.3599C43.3486 77.1781 43.6214 76.9281 43.8202 76.6099C44.0248 76.2861 44.1271 75.9224 44.1271 75.519C44.1271 75.1156 44.0248 74.7577 43.8202 74.4452C43.6214 74.1327 43.3486 73.8883 43.0021 73.7122C42.6555 73.5304 42.2577 73.4395 41.8089 73.4395C41.3657 73.4395 40.968 73.5304 40.6157 73.7122C40.2691 73.8883 39.9935 74.1327 39.789 74.4452C39.5901 74.7577 39.4907 75.1156 39.4907 75.519C39.4907 75.9224 39.5901 76.2832 39.789 76.6014C39.9935 76.9196 40.2691 77.1724 40.6157 77.3599C40.968 77.5417 41.3657 77.6327 41.8089 77.6327ZM41.8089 70.1667C42.2066 70.1667 42.5589 70.0844 42.8657 69.9196C43.1725 69.7548 43.414 69.5275 43.5901 69.2378C43.7663 68.948 43.8543 68.6213 43.8543 68.2577C43.8543 67.894 43.7663 67.573 43.5901 67.2946C43.414 67.0105 43.1725 66.7889 42.8657 66.6298C42.5589 66.465 42.2066 66.3827 41.8089 66.3827C41.4168 66.3827 41.0646 66.465 40.7521 66.6298C40.4452 66.7889 40.2038 67.0105 40.0276 67.2946C39.8515 67.573 39.7634 67.894 39.7634 68.2577C39.7634 68.6213 39.8515 68.948 40.0276 69.2378C40.2038 69.5219 40.4452 69.7491 40.7521 69.9196C41.0646 70.0844 41.4168 70.1667 41.8089 70.1667ZM51.2542 80.6667V77.2577L57.7655 71.8713C58.1974 71.5133 58.5667 71.1781 58.8735 70.8656C59.186 70.5474 59.4246 70.2207 59.5894 69.8855C59.7599 69.5503 59.8451 69.1781 59.8451 68.769C59.8451 68.3202 59.7485 67.9366 59.5553 67.6185C59.3678 67.3003 59.1065 67.056 58.7712 66.8855C58.436 66.7094 58.0496 66.6213 57.6121 66.6213C57.1746 66.6213 56.7883 66.7094 56.453 66.8855C56.1235 67.0616 55.8678 67.3202 55.686 67.6611C55.5042 68.002 55.4133 68.4167 55.4133 68.9054H50.9133C50.9133 67.6781 51.1888 66.6213 51.74 65.7349C52.2911 64.8486 53.0695 64.1667 54.0752 63.6895C55.0809 63.2122 56.2599 62.9736 57.6121 62.9736C59.0099 62.9736 60.2201 63.198 61.2428 63.6469C62.2712 64.09 63.0638 64.715 63.6207 65.5219C64.1832 66.3287 64.4644 67.2747 64.4644 68.3599C64.4644 69.0304 64.3252 69.698 64.0468 70.3628C63.7684 71.0219 63.2684 71.752 62.5468 72.5531C61.8252 73.3542 60.7996 74.3088 59.4701 75.4167L57.8337 76.7804V76.8827H64.6519V80.6667H51.2542ZM69.3607 80.9395C68.7016 80.9395 68.1363 80.7094 67.6647 80.2491C67.1988 79.7832 66.9687 79.2179 66.9744 78.5531C66.9687 77.9054 67.1988 77.3514 67.6647 76.8912C68.1363 76.431 68.7016 76.2008 69.3607 76.2008C69.9857 76.2008 70.5369 76.431 71.0141 76.8912C71.4971 77.3514 71.7414 77.9054 71.7471 78.5531C71.7414 78.9963 71.6249 79.3997 71.3976 79.7633C71.1761 80.1213 70.8863 80.4082 70.5283 80.6241C70.1704 80.8344 69.7812 80.9395 69.3607 80.9395ZM80.7918 80.9054C79.7748 80.9054 78.8089 80.7463 77.8941 80.4281C76.985 80.1042 76.1782 79.5957 75.4736 78.9025C74.7691 78.2094 74.2151 77.306 73.8117 76.1923C73.414 75.0787 73.218 73.7292 73.2236 72.144C73.2293 70.7292 73.4111 69.4565 73.7691 68.3258C74.1327 67.1952 74.6469 66.2321 75.3117 65.4366C75.9822 64.6412 76.7833 64.0332 77.7151 63.6128C78.6469 63.1866 79.6839 62.9736 80.8259 62.9736C82.11 62.9736 83.2407 63.2207 84.218 63.715C85.1952 64.2094 85.9736 64.8713 86.5532 65.7008C87.1384 66.5247 87.4793 67.4338 87.5759 68.4281H82.9055C82.7975 67.9338 82.5475 67.573 82.1555 67.3457C81.7691 67.1128 81.3259 66.9963 80.8259 66.9963C79.8316 66.9963 79.1015 67.4281 78.6356 68.2917C78.1753 69.1554 77.9396 70.2917 77.9282 71.7008H78.0305C78.2521 71.1667 78.5873 70.7094 79.0361 70.3287C79.485 69.948 80.0077 69.6554 80.6043 69.4508C81.2009 69.2463 81.8316 69.144 82.4964 69.144C83.5532 69.144 84.4765 69.3827 85.2663 69.8599C86.0617 70.3372 86.681 70.9906 87.1242 71.8202C87.5674 72.6497 87.7861 73.5986 87.7805 74.6667C87.7861 75.9167 87.4907 77.0105 86.8941 77.948C86.3032 78.8855 85.4822 79.6128 84.431 80.1298C83.3799 80.6469 82.1668 80.9054 80.7918 80.9054ZM80.7577 77.3258C81.2293 77.3258 81.6469 77.2179 82.0106 77.002C82.3799 76.7861 82.6668 76.4906 82.8714 76.1156C83.0816 75.7406 83.1839 75.3145 83.1782 74.8372C83.1839 74.3542 83.0816 73.9281 82.8714 73.5588C82.6668 73.1838 82.3799 72.8883 82.0106 72.6724C81.6469 72.4565 81.2293 72.3486 80.7577 72.3486C80.4111 72.3486 80.0901 72.4111 79.7947 72.5361C79.5049 72.6554 79.2521 72.8287 79.0361 73.056C78.8202 73.2775 78.6498 73.5417 78.5248 73.8486C78.4055 74.1497 78.343 74.4792 78.3373 74.8372C78.343 75.3145 78.4509 75.7406 78.6611 76.1156C78.8714 76.4906 79.1583 76.7861 79.5219 77.002C79.8856 77.2179 80.2975 77.3258 80.7577 77.3258ZM99.9147 77.394V76.4736C99.9147 75.7349 100.074 75.0531 100.392 74.4281C100.716 73.8031 101.185 73.3003 101.798 72.9196C102.412 72.5389 103.159 72.3486 104.04 72.3486C104.943 72.3486 105.702 72.5361 106.315 72.9111C106.935 73.2861 107.403 73.7861 107.722 74.4111C108.04 75.0361 108.199 75.7236 108.199 76.4736V77.394C108.199 78.1327 108.037 78.8145 107.713 79.4395C107.395 80.0645 106.926 80.5673 106.307 80.948C105.687 81.3287 104.932 81.519 104.04 81.519C103.148 81.519 102.395 81.3287 101.781 80.948C101.168 80.5673 100.702 80.0645 100.383 79.4395C100.071 78.8145 99.9147 78.1327 99.9147 77.394ZM102.881 76.4736V77.394C102.881 77.7179 102.96 78.0389 103.119 78.3571C103.284 78.6696 103.591 78.8258 104.04 78.8258C104.511 78.8258 104.821 78.6724 104.969 78.3656C105.122 78.0588 105.199 77.7349 105.199 77.394V76.4736C105.199 76.1327 105.128 75.8031 104.986 75.4849C104.844 75.1667 104.528 75.0077 104.04 75.0077C103.591 75.0077 103.284 75.1667 103.119 75.4849C102.96 75.8031 102.881 76.1327 102.881 76.4736ZM90.7783 67.4054V66.4849C90.7783 65.7349 90.9403 65.0474 91.2641 64.4224C91.5937 63.7974 92.0653 63.2974 92.6789 62.9224C93.2925 62.5474 94.034 62.3599 94.9033 62.3599C95.8067 62.3599 96.5653 62.5474 97.1789 62.9224C97.7982 63.2974 98.267 63.7974 98.5852 64.4224C98.9033 65.0474 99.0624 65.7349 99.0624 66.4849V67.4054C99.0624 68.1554 98.9005 68.84 98.5766 69.4594C98.2584 70.0787 97.7897 70.573 97.1704 70.9423C96.5511 71.3116 95.7954 71.4963 94.9033 71.4963C94.0113 71.4963 93.2584 71.3088 92.6448 70.9338C92.0312 70.5588 91.5653 70.0616 91.2471 69.4423C90.9346 68.823 90.7783 68.144 90.7783 67.4054ZM93.7783 66.4849V67.4054C93.7783 67.7463 93.8579 68.0702 94.017 68.377C94.1761 68.6838 94.4715 68.8372 94.9033 68.8372C95.3749 68.8372 95.6846 68.6838 95.8323 68.377C95.9857 68.0702 96.0624 67.7463 96.0624 67.4054V66.4849C96.0624 66.144 95.9914 65.8145 95.8494 65.4963C95.7073 65.1781 95.392 65.019 94.9033 65.019C94.4545 65.019 94.1533 65.1838 93.9999 65.5133C93.8522 65.8372 93.7783 66.1611 93.7783 66.4849ZM92.2272 80.6667L104.227 63.2122H106.648L94.6476 80.6667H92.2272Z" fill="white"/>
</svg>
