<svg width="140" height="140" viewBox="0 0 140 140" fill="none" xmlns="http://www.w3.org/2000/svg">
<circle cx="70" cy="70" r="65" stroke="black" stroke-opacity="0.3" stroke-width="10"/>
<path d="M70 5C83.6527 5 96.9588 9.29894 108.031 17.287C119.103 25.2751 127.378 36.5466 131.684 49.5028C135.989 62.4589 136.105 76.4418 132.016 89.4678C127.927 102.494 119.84 113.902 108.903 122.073C97.9654 130.244 84.7326 134.764 71.0818 134.991C57.431 135.218 44.0551 131.141 32.8518 123.339C21.6484 115.536 13.1864 104.404 8.6661 91.521C4.14579 78.6383 3.79672 64.6593 7.66841 51.5671" stroke="#FFB400" stroke-width="10"/>
<path d="M34.1426 79L40.9949 65.4318V65.3295H32.9495V61.5455H45.904V65.3295L39.0176 79H34.1426ZM54.5908 61.3068C55.6078 61.3068 56.5709 61.4687 57.48 61.7926C58.3891 62.1108 59.1931 62.6136 59.8919 63.3011C60.5965 63.9886 61.1476 64.8864 61.5453 65.9943C61.9488 67.0966 62.1533 68.4318 62.159 70C62.1647 71.4318 61.9857 72.7187 61.622 73.8608C61.2641 74.9972 60.7499 75.9659 60.0794 76.767C59.4147 77.5682 58.6135 78.1818 57.676 78.608C56.7442 79.0284 55.7044 79.2386 54.5567 79.2386C53.2669 79.2386 52.1334 78.9915 51.1561 78.4972C50.1789 78.0028 49.4005 77.3381 48.8209 76.5028C48.2414 75.6676 47.9033 74.7386 47.8067 73.7159H52.4772C52.5908 74.2443 52.8408 74.6278 53.2272 74.8665C53.6135 75.0994 54.0567 75.2159 54.5567 75.2159C55.5567 75.2159 56.2868 74.7841 56.747 73.9205C57.213 73.0511 57.4488 71.892 57.4544 70.4432H57.3522C57.1306 70.9773 56.7953 71.4347 56.3465 71.8153C55.8976 72.196 55.3749 72.4886 54.7783 72.6932C54.1817 72.8977 53.551 73 52.8863 73C51.8351 73 50.9147 72.7642 50.1249 72.2926C49.3351 71.8153 48.7186 71.1648 48.2755 70.3409C47.8323 69.5114 47.6078 68.5682 47.6022 67.5114C47.5965 66.2727 47.8891 65.1875 48.48 64.2557C49.0709 63.3239 49.8919 62.5994 50.9431 62.0824C51.9942 61.5653 53.2101 61.3068 54.5908 61.3068ZM54.6249 64.8864C54.1533 64.8864 53.7328 64.9943 53.3635 65.2102C52.9999 65.4261 52.713 65.7187 52.5027 66.0881C52.2982 66.4574 52.1988 66.875 52.2044 67.3409C52.2101 67.8068 52.3152 68.2244 52.5198 68.5938C52.73 68.9631 53.0141 69.2557 53.372 69.4716C53.7357 69.6875 54.1533 69.7955 54.6249 69.7955C54.9715 69.7955 55.2925 69.7358 55.588 69.6165C55.8834 69.4915 56.1391 69.3182 56.355 69.0966C56.5766 68.8693 56.747 68.608 56.8664 68.3125C56.9914 68.0114 57.051 67.6875 57.0453 67.3409C57.0397 66.875 56.9317 66.4574 56.7215 66.0881C56.5113 65.7187 56.2243 65.4261 55.8607 65.2102C55.497 64.9943 55.0851 64.8864 54.6249 64.8864ZM66.0198 79.2727C65.3607 79.2727 64.7953 79.0426 64.3238 78.5824C63.8578 78.1165 63.6277 77.5511 63.6334 76.8864C63.6277 76.2386 63.8578 75.6847 64.3238 75.2244C64.7953 74.7642 65.3607 74.5341 66.0198 74.5341C66.6448 74.5341 67.1959 74.7642 67.6732 75.2244C68.1561 75.6847 68.4005 76.2386 68.4061 76.8864C68.4005 77.3295 68.284 77.733 68.0567 78.0966C67.8351 78.4545 67.5453 78.7415 67.1874 78.9574C66.8294 79.1676 66.4402 79.2727 66.0198 79.2727ZM77.4509 79.2386C76.4338 79.2386 75.4679 79.0795 74.5532 78.7614C73.6441 78.4375 72.8372 77.929 72.1327 77.2358C71.4282 76.5426 70.8742 75.6392 70.4708 74.5256C70.073 73.4119 69.877 72.0625 69.8827 70.4773C69.8884 69.0625 70.0702 67.7898 70.4282 66.6591C70.7918 65.5284 71.306 64.5653 71.9708 63.7699C72.6412 62.9744 73.4424 62.3665 74.3742 61.946C75.306 61.5199 76.3429 61.3068 77.485 61.3068C78.7691 61.3068 79.8997 61.554 80.877 62.0483C81.8543 62.5426 82.6327 63.2045 83.2122 64.0341C83.7975 64.858 84.1384 65.767 84.235 66.7614H79.5645C79.4566 66.267 79.2066 65.9062 78.8145 65.679C78.4282 65.446 77.985 65.3295 77.485 65.3295C76.4907 65.3295 75.7605 65.7614 75.2946 66.625C74.8344 67.4886 74.5986 68.625 74.5872 70.0341H74.6895C74.9111 69.5 75.2463 69.0426 75.6952 68.6619C76.1441 68.2812 76.6668 67.9886 77.2634 67.7841C77.86 67.5795 78.4907 67.4773 79.1554 67.4773C80.2122 67.4773 81.1355 67.7159 81.9253 68.1932C82.7208 68.6705 83.3401 69.3239 83.7833 70.1534C84.2265 70.983 84.4452 71.9318 84.4395 73C84.4452 74.25 84.1497 75.3438 83.5532 76.2812C82.9622 77.2188 82.1412 77.946 81.0901 78.4631C80.039 78.9801 78.8259 79.2386 77.4509 79.2386ZM77.4168 75.6591C77.8884 75.6591 78.306 75.5511 78.6696 75.3352C79.039 75.1193 79.3259 74.8239 79.5304 74.4489C79.7407 74.0739 79.8429 73.6477 79.8372 73.1705C79.8429 72.6875 79.7407 72.2614 79.5304 71.892C79.3259 71.517 79.039 71.2216 78.6696 71.0057C78.306 70.7898 77.8884 70.6818 77.4168 70.6818C77.0702 70.6818 76.7492 70.7443 76.4537 70.8693C76.164 70.9886 75.9111 71.1619 75.6952 71.3892C75.4793 71.6108 75.3088 71.875 75.1838 72.1818C75.0645 72.483 75.002 72.8125 74.9963 73.1705C75.002 73.6477 75.11 74.0739 75.3202 74.4489C75.5304 74.8239 75.8174 75.1193 76.181 75.3352C76.5446 75.5511 76.9566 75.6591 77.4168 75.6591ZM96.5738 75.7273V74.8068C96.5738 74.0682 96.7328 73.3864 97.051 72.7614C97.3749 72.1364 97.8436 71.6335 98.4573 71.2528C99.0709 70.8722 99.8181 70.6818 100.699 70.6818C101.602 70.6818 102.361 70.8693 102.974 71.2443C103.594 71.6193 104.062 72.1193 104.381 72.7443C104.699 73.3693 104.858 74.0568 104.858 74.8068V75.7273C104.858 76.4659 104.696 77.1477 104.372 77.7727C104.054 78.3977 103.585 78.9006 102.966 79.2812C102.346 79.6619 101.591 79.8523 100.699 79.8523C99.8067 79.8523 99.0539 79.6619 98.4402 79.2812C97.8266 78.9006 97.3607 78.3977 97.0425 77.7727C96.73 77.1477 96.5738 76.4659 96.5738 75.7273ZM99.5397 74.8068V75.7273C99.5397 76.0511 99.6192 76.3722 99.7783 76.6903C99.9431 77.0028 100.25 77.1591 100.699 77.1591C101.17 77.1591 101.48 77.0057 101.628 76.6989C101.781 76.392 101.858 76.0682 101.858 75.7273V74.8068C101.858 74.4659 101.787 74.1364 101.645 73.8182C101.503 73.5 101.187 73.3409 100.699 73.3409C100.25 73.3409 99.9431 73.5 99.7783 73.8182C99.6192 74.1364 99.5397 74.4659 99.5397 74.8068ZM87.4374 65.7386V64.8182C87.4374 64.0682 87.5993 63.3807 87.9232 62.7557C88.2527 62.1307 88.7243 61.6307 89.338 61.2557C89.9516 60.8807 90.6931 60.6932 91.5624 60.6932C92.4658 60.6932 93.2243 60.8807 93.838 61.2557C94.4573 61.6307 94.926 62.1307 95.2442 62.7557C95.5624 63.3807 95.7215 64.0682 95.7215 64.8182V65.7386C95.7215 66.4886 95.5595 67.1733 95.2357 67.7926C94.9175 68.4119 94.4488 68.9062 93.8294 69.2756C93.2101 69.6449 92.4544 69.8295 91.5624 69.8295C90.6703 69.8295 89.9175 69.642 89.3039 69.267C88.6902 68.892 88.2243 68.3949 87.9061 67.7756C87.5936 67.1562 87.4374 66.4773 87.4374 65.7386ZM90.4374 64.8182V65.7386C90.4374 66.0795 90.5169 66.4034 90.676 66.7102C90.8351 67.017 91.1306 67.1705 91.5624 67.1705C92.034 67.1705 92.3436 67.017 92.4914 66.7102C92.6448 66.4034 92.7215 66.0795 92.7215 65.7386V64.8182C92.7215 64.4773 92.6505 64.1477 92.5084 63.8295C92.3664 63.5114 92.051 63.3523 91.5624 63.3523C91.1135 63.3523 90.8124 63.517 90.659 63.8466C90.5113 64.1705 90.4374 64.4943 90.4374 64.8182ZM88.8863 79L100.886 61.5455H103.307L91.3067 79H88.8863Z" fill="white"/>
</svg>
