<svg width="22" height="23" viewBox="0 0 22 23" fill="none" xmlns="http://www.w3.org/2000/svg">
<path d="M18.9539 0C18.6372 0 18.3356 0.143602 18.0822 0.397018L17.4757 0.97734L21.0387 4.54037L21.6199 3.93386C22.1267 3.42703 22.1267 2.67185 21.6199 2.16502L19.851 0.396173C19.5976 0.142758 19.2699 0 18.9531 0H18.9539ZM16.8945 1.4791L15.9704 2.24526L19.7716 6.0465L20.6164 5.20178L16.8945 1.47826V1.4791ZM15.4686 2.85177L7.84082 10.4019C7.8022 10.4338 7.76658 10.4691 7.73438 10.5075L7.68201 10.5336C7.58987 10.6392 7.5262 10.7666 7.49701 10.9036L6.4673 14.5199C6.42317 14.663 6.4189 14.8155 6.45497 14.9608C6.49103 15.1062 6.56605 15.239 6.67197 15.3449C6.77788 15.4508 6.91067 15.5259 7.05605 15.5619C7.20142 15.598 7.35388 15.5937 7.49701 15.5496L11.1133 14.5199C11.2333 14.4914 11.3455 14.4363 11.4414 14.3587C11.5373 14.281 11.6145 14.1828 11.6674 14.0713L19.1651 6.65301L17.7392 5.12153V5.20094L16.7357 4.19741H16.8151L15.4695 2.85177H15.4686ZM0.686888 3.43209C0.491191 3.46932 0.314945 3.5745 0.189281 3.72907C0.0636178 3.88363 -0.00337701 4.07764 0.000131101 4.27681V21.1712C0.000131101 21.3952 0.0891281 21.6101 0.247544 21.7685C0.405959 21.9269 0.620817 22.0159 0.84485 22.0159H17.7392C17.9633 22.0159 18.1781 21.9269 18.3365 21.7685C18.495 21.6101 18.584 21.3952 18.584 21.1712V11.8793C18.584 11.6553 18.495 11.4404 18.3365 11.282C18.1781 11.1236 17.9633 11.0346 17.7392 11.0346C17.5152 11.0346 17.3003 11.1236 17.1419 11.282C16.9835 11.4404 16.8945 11.6553 16.8945 11.8793V20.3265H1.68957V5.12153H10.1368C10.3608 5.12153 10.5757 5.03254 10.7341 4.87412C10.8925 4.7157 10.9815 4.50085 10.9815 4.27681C10.9815 4.05278 10.8925 3.83792 10.7341 3.67951C10.5757 3.52109 10.3608 3.43209 10.1368 3.43209H0.84485C0.818397 3.43085 0.7919 3.43085 0.765447 3.43209C0.738994 3.43085 0.712496 3.43085 0.686043 3.43209H0.686888ZM8.97612 11.7213L10.1376 11.7999L10.217 13.067L9.05552 13.4099L8.60698 12.9622L8.97612 11.7205V11.7213Z" fill="#FFB400"/>
</svg>
