<svg width="24" height="24" viewBox="0 0 24 24" fill="none" xmlns="http://www.w3.org/2000/svg">
<path d="M12.24 3.93604C16.476 3.93604 19.956 7.06804 20.544 11.136H23.04L18.84 15.936L14.64 11.136H17.424C17.1555 9.96137 16.4967 8.91242 15.5552 8.16048C14.6136 7.40855 13.4449 6.99805 12.24 6.99604C10.5 6.99604 8.96396 7.84804 7.99196 9.13204L5.93996 6.79204C6.72538 5.89391 7.69398 5.17434 8.78064 4.68172C9.86731 4.1891 11.0468 3.93484 12.24 3.93604ZM11.76 20.064C7.53596 20.064 4.04396 16.932 3.45596 12.864H0.959961L5.15996 8.06404C6.56396 9.66004 7.95596 11.268 9.35996 12.864H6.57596C6.84442 14.0387 7.50322 15.0877 8.44477 15.8396C9.38633 16.5915 10.555 17.002 11.76 17.004C13.5 17.004 15.036 16.152 16.008 14.868L18.06 17.208C17.2753 18.1071 16.3069 18.8273 15.22 19.32C14.1332 19.8127 12.9533 20.0664 11.76 20.064Z" fill="#765475"/>
</svg>
