<svg width="60" height="163" viewBox="0 0 60 163" fill="none" xmlns="http://www.w3.org/2000/svg">
<line x1="31.5" y1="56.5" x2="31.5" y2="161.5" stroke="#0E79B2" stroke-width="3" stroke-linecap="round"/>
<circle cx="30" cy="30" r="30" fill="#0E79B2"/>
<path d="M39.255 15H20.745C17.58 15 15 17.58 15 20.745V24.255H17.25H42.75H45V20.745C45 17.58 42.42 15 39.255 15ZM20.745 22.29C19.905 22.29 19.215 21.6 19.215 20.745C19.215 19.905 19.905 19.215 20.745 19.215C21.6 19.215 22.29 19.905 22.29 20.745C22.29 21.6 21.6 22.29 20.745 22.29Z" fill="#FFB400"/>
<path d="M17.25 26.5049H15V39.2549C15 42.4199 17.58 44.9999 20.745 44.9999H39.255C42.42 44.9999 45 42.4199 45 39.2549V26.5049H42.75H17.25ZM33.885 32.0549C33.45 31.6199 33.45 30.8999 33.885 30.4649C34.32 30.0149 35.04 30.0299 35.475 30.4649L38.565 33.5399C39 33.9899 39 34.6949 38.565 35.1299L35.475 38.2199C35.25 38.4449 34.965 38.5499 34.68 38.5499C34.395 38.5499 34.11 38.4449 33.885 38.2199C33.45 37.7849 33.45 37.0649 33.885 36.6299L36.18 34.3349L33.885 32.0549ZM27.885 38.6399L29.925 29.3849C30.06 28.7849 30.66 28.3949 31.26 28.5299C31.875 28.6649 32.25 29.2649 32.115 29.8649L30.075 39.1199C29.97 39.6449 29.49 40.0049 28.98 40.0049C28.905 40.0049 28.815 39.9899 28.74 39.9749C28.125 39.8399 27.75 39.2399 27.885 38.6399ZM21.54 33.5399L24.615 30.4649C25.065 30.0149 25.77 30.0149 26.205 30.4649C26.655 30.8999 26.655 31.6199 26.205 32.0549L23.925 34.3349L26.205 36.6299C26.655 37.0649 26.655 37.7849 26.205 38.2199C25.995 38.4449 25.71 38.5499 25.41 38.5499C25.125 38.5499 24.84 38.4449 24.615 38.2199L21.54 35.1299C21.09 34.6949 21.09 33.9899 21.54 33.5399Z" fill="#FFB400"/>
</svg>
