<svg width="36" height="35" viewBox="0 0 36 35" fill="none" xmlns="http://www.w3.org/2000/svg">
<ellipse cx="18" cy="17.5" rx="18" ry="17.5" fill="#13262F"/>
<path fill-rule="evenodd" clip-rule="evenodd" d="M18 5C10.8175 5 5 10.9646 5 18.3288C5 24.2268 8.72125 29.2085 13.8888 30.9745C14.5387 31.0912 14.7825 30.6913 14.7825 30.3414C14.7825 30.0249 14.7663 28.9752 14.7663 27.8589C11.5 28.4754 10.655 27.0425 10.395 26.2928C10.2487 25.9096 9.615 24.7267 9.0625 24.4101C8.6075 24.1602 7.9575 23.5437 9.04625 23.5271C10.07 23.5104 10.8012 24.4934 11.045 24.8933C12.215 26.9092 14.0838 26.3428 14.8313 25.9929C14.945 25.1265 15.2863 24.5434 15.66 24.2102C12.7675 23.8769 9.745 22.7273 9.745 17.6291C9.745 16.1795 10.2488 14.98 11.0775 14.0469C10.9475 13.7137 10.4925 12.3475 11.2075 10.5148C11.2075 10.5148 12.2962 10.1649 14.7825 11.881C15.8225 11.5811 16.9275 11.4312 18.0325 11.4312C19.1375 11.4312 20.2425 11.5811 21.2825 11.881C23.7688 10.1483 24.8575 10.5148 24.8575 10.5148C25.5725 12.3475 25.1175 13.7137 24.9875 14.0469C25.8162 14.98 26.32 16.1629 26.32 17.6291C26.32 22.744 23.2812 23.8769 20.3888 24.2102C20.86 24.6267 21.2663 25.4264 21.2663 26.676C21.2663 28.4587 21.25 29.8916 21.25 30.3414C21.25 30.6913 21.4937 31.1078 22.1438 30.9745C27.2788 29.2085 31 24.2102 31 18.3288C31 10.9646 25.1825 5 18 5Z" fill="#0E79B2"/>
</svg>
