<svg width="35" height="35" viewBox="0 0 35 35" fill="none" xmlns="http://www.w3.org/2000/svg">
<circle cx="17.5" cy="17.5" r="17.5" fill="#13262F"/>
<path d="M8.38589 26.1964H11.988V17.4483L6.8421 13.5889V24.6527C6.8421 25.5069 7.53423 26.1964 8.38589 26.1964Z" fill="#0E79B2"/>
<path d="M24.3383 26.1964H27.9405C28.7947 26.1964 29.4843 25.5043 29.4843 24.6527V13.5889L24.3383 17.4483" fill="#0E79B2"/>
<path d="M24.3383 10.7586V17.4483L29.4843 13.5889V11.5305C29.4843 9.62136 27.305 8.53299 25.7792 9.67796" fill="#0E79B2"/>
<path d="M11.988 17.4483V10.7585L18.1632 15.3899L24.3383 10.7585V17.4483L18.1632 22.0796" fill="#0E79B2"/>
<path d="M6.8421 11.5305V13.5889L11.988 17.4483V10.7586L10.5472 9.67796C9.01884 8.53299 6.8421 9.62136 6.8421 11.5305Z" fill="#0E79B2"/>
</svg>
