<svg width="179" height="104" viewBox="0 0 179 104" fill="none" xmlns="http://www.w3.org/2000/svg">
<rect y="29" width="135" height="45" rx="22.5" fill="#0E79B2"/>
<path d="M18.125 60V42.5455H25.6932C27.0227 42.5455 28.1392 42.7244 29.0426 43.0824C29.9517 43.4403 30.6364 43.946 31.0966 44.5994C31.5625 45.2528 31.7955 46.0227 31.7955 46.9091C31.7955 47.5511 31.6534 48.1364 31.3693 48.6648C31.0909 49.1932 30.6989 49.6364 30.1932 49.9943C29.6875 50.3466 29.0966 50.5909 28.4205 50.7273V50.8977C29.1705 50.9261 29.8523 51.1165 30.4659 51.4688C31.0795 51.8153 31.5682 52.2955 31.9318 52.9091C32.2955 53.517 32.4773 54.233 32.4773 55.0568C32.4773 56.0114 32.2273 56.8608 31.7273 57.6051C31.233 58.3494 30.5284 58.9347 29.6136 59.3608C28.6989 59.7869 27.608 60 26.3409 60H18.125ZM22.8636 56.2159H25.0795C25.875 56.2159 26.4716 56.0682 26.8693 55.7727C27.267 55.4716 27.4659 55.0284 27.4659 54.4432C27.4659 54.0341 27.3722 53.6875 27.1847 53.4034C26.9972 53.1193 26.7301 52.9034 26.3835 52.7557C26.0426 52.608 25.6307 52.5341 25.1477 52.5341H22.8636V56.2159ZM22.8636 49.6023H24.8068C25.2216 49.6023 25.5881 49.5369 25.9062 49.4062C26.2244 49.2756 26.4716 49.0881 26.6477 48.8438C26.8295 48.5938 26.9205 48.2898 26.9205 47.9318C26.9205 47.392 26.7273 46.9801 26.3409 46.696C25.9545 46.4062 25.4659 46.2614 24.875 46.2614H22.8636V49.6023ZM34.1562 60V42.5455H38.8949V56.1818H45.9517V60H34.1562ZM64.0966 51.2727C64.0966 53.2159 63.7188 54.8551 62.9631 56.1903C62.2074 57.5199 61.1875 58.5284 59.9034 59.2159C58.6193 59.8977 57.1875 60.2386 55.608 60.2386C54.017 60.2386 52.5795 59.8949 51.2955 59.2074C50.017 58.5142 49 57.5028 48.2443 56.1733C47.4943 54.8381 47.1193 53.2045 47.1193 51.2727C47.1193 49.3295 47.4943 47.6932 48.2443 46.3636C49 45.0284 50.017 44.0199 51.2955 43.3381C52.5795 42.6506 54.017 42.3068 55.608 42.3068C57.1875 42.3068 58.6193 42.6506 59.9034 43.3381C61.1875 44.0199 62.2074 45.0284 62.9631 46.3636C63.7188 47.6932 64.0966 49.3295 64.0966 51.2727ZM59.2216 51.2727C59.2216 50.2273 59.0824 49.3466 58.804 48.6307C58.5312 47.9091 58.125 47.3636 57.5852 46.9943C57.0511 46.6193 56.392 46.4318 55.608 46.4318C54.8239 46.4318 54.1619 46.6193 53.6222 46.9943C53.0881 47.3636 52.6818 47.9091 52.4034 48.6307C52.1307 49.3466 51.9943 50.2273 51.9943 51.2727C51.9943 52.3182 52.1307 53.2017 52.4034 53.9233C52.6818 54.6392 53.0881 55.1847 53.6222 55.5597C54.1619 55.929 54.8239 56.1136 55.608 56.1136C56.392 56.1136 57.0511 55.929 57.5852 55.5597C58.125 55.1847 58.5312 54.6392 58.804 53.9233C59.0824 53.2017 59.2216 52.3182 59.2216 51.2727ZM77.6243 48.3068C77.5504 48.0057 77.4339 47.7415 77.2749 47.5142C77.1158 47.2812 76.9169 47.0852 76.6783 46.9261C76.4453 46.7614 76.1726 46.6392 75.8601 46.5597C75.5533 46.4744 75.2152 46.4318 74.8459 46.4318C74.0504 46.4318 73.3714 46.6222 72.8089 47.0028C72.2521 47.3835 71.826 47.9318 71.5305 48.6477C71.2408 49.3636 71.0959 50.2273 71.0959 51.2386C71.0959 52.2614 71.2351 53.1364 71.5135 53.8636C71.7919 54.5909 72.2067 55.1477 72.7578 55.5341C73.3089 55.9205 73.9936 56.1136 74.8118 56.1136C75.5334 56.1136 76.1328 56.0085 76.6101 55.7983C77.093 55.5881 77.4538 55.2898 77.6925 54.9034C77.9311 54.517 78.0504 54.0625 78.0504 53.5398L78.8686 53.625H74.88V50.25H82.6186V52.6705C82.6186 54.2614 82.2805 55.6222 81.6044 56.7528C80.9339 57.8778 80.0078 58.7415 78.826 59.3438C77.6499 59.9403 76.3004 60.2386 74.7777 60.2386C73.0788 60.2386 71.5874 59.8778 70.3033 59.1562C69.0192 58.4347 68.0163 57.4062 67.2947 56.071C66.5788 54.7358 66.2209 53.1477 66.2209 51.3068C66.2209 49.8636 66.4396 48.5852 66.8771 47.4716C67.3203 46.358 67.9339 45.4176 68.718 44.6506C69.5021 43.8778 70.4084 43.2955 71.4368 42.9034C72.4652 42.5057 73.5675 42.3068 74.7436 42.3068C75.7777 42.3068 76.7379 42.4545 77.6243 42.75C78.5163 43.0398 79.3033 43.4545 79.9851 43.9943C80.6726 44.5284 81.2266 45.1619 81.647 45.8949C82.0675 46.6278 82.3232 47.4318 82.4141 48.3068H77.6243Z" fill="white"/>
<g filter="url(#filter0_d_228_1210)">
<circle cx="127" cy="52" r="30" fill="#0E79B2"/>
</g>
<path d="M123.567 66.5832C121.6 66.5832 119.7 66.1666 117.917 65.3332L111.817 66.2166C111.417 66.2832 111.033 66.1332 110.75 65.8666C110.467 65.5832 110.333 65.1832 110.4 64.7999L111.333 58.6166C110.667 57.0166 110.333 55.3499 110.333 53.6666C110.333 50.2999 111.65 47.0999 114.05 44.6832C114.533 44.1832 115.333 44.1999 115.817 44.6832C116.3 45.1666 116.317 45.9666 115.817 46.4499C113.883 48.3999 112.817 50.9499 112.817 53.6666C112.817 55.1166 113.133 56.5666 113.767 57.9499C113.9 58.2332 113.917 58.5499 113.817 58.8499L113.117 63.5166L117.933 62.8166C118.183 62.7832 118.433 62.8166 118.667 62.9332C120.533 63.8666 122.617 64.2332 124.633 64.0332C125.3 63.9499 125.933 64.4666 126 65.1499C126.067 65.8332 125.567 66.4499 124.883 66.5166C124.467 66.5666 124.017 66.5832 123.567 66.5832Z" fill="#FFB400"/>
<path d="M143.683 50.3334C143.683 43.2167 137.733 37.4167 130.433 37.4167C126.85 37.4167 123.517 38.7834 121.05 41.2334C118.567 43.6834 117.2 46.9001 117.2 50.3334C117.2 57.4501 123.133 63.2501 130.433 63.2501C131.1 63.2501 131.733 63.2001 132.267 63.1167C132.283 63.1167 132.317 63.1167 132.333 63.1001C133.65 62.9167 134.9 62.5501 136.083 62.0001L142.183 62.8834C142.583 62.9501 142.967 62.8167 143.25 62.5334C143.517 62.2501 143.65 61.8501 143.6 61.4667L142.667 55.2667C143.333 53.6834 143.683 52.0167 143.683 50.3334ZM126.35 50.7501C126.183 51.2667 125.683 51.6334 125.1 51.6334C124.367 51.6334 123.767 51.0501 123.767 50.3334C123.767 49.6167 124.367 49.0334 125.1 49.0334C125.25 49.0334 125.383 49.0501 125.517 49.1001C126.05 49.2667 126.433 49.7667 126.433 50.3334C126.433 50.4834 126.4 50.6167 126.35 50.7501ZM130.433 51.6334C129.7 51.6334 129.1 51.0501 129.1 50.3334C129.1 49.6167 129.7 49.0334 130.433 49.0334C131.167 49.0334 131.767 49.6167 131.767 50.3334C131.767 51.0501 131.167 51.6334 130.433 51.6334ZM135.767 51.6334C135.033 51.6334 134.433 51.0501 134.433 50.3334C134.433 49.6167 135.033 49.0334 135.767 49.0334C136.5 49.0334 137.1 49.6167 137.1 50.3334C137.1 51.0501 136.5 51.6334 135.767 51.6334Z" fill="#FFB400"/>
<defs>
<filter id="filter0_d_228_1210" x="75" y="0" width="104" height="104" filterUnits="userSpaceOnUse" color-interpolation-filters="sRGB">
<feFlood flood-opacity="0" result="BackgroundImageFix"/>
<feColorMatrix in="SourceAlpha" type="matrix" values="0 0 0 0 0 0 0 0 0 0 0 0 0 0 0 0 0 0 127 0" result="hardAlpha"/>
<feMorphology radius="2" operator="dilate" in="SourceAlpha" result="effect1_dropShadow_228_1210"/>
<feOffset/>
<feGaussianBlur stdDeviation="10"/>
<feComposite in2="hardAlpha" operator="out"/>
<feColorMatrix type="matrix" values="0 0 0 0 0 0 0 0 0 0.0933036 0 0 0 0 0.1375 0 0 0 0.7 0"/>
<feBlend mode="normal" in2="BackgroundImageFix" result="effect1_dropShadow_228_1210"/>
<feBlend mode="normal" in="SourceGraphic" in2="effect1_dropShadow_228_1210" result="shape"/>
</filter>
</defs>
</svg>
