<svg width="240" height="104" viewBox="0 0 240 104" fill="none" xmlns="http://www.w3.org/2000/svg">
<rect y="29" width="190" height="45" rx="22.5" fill="#0E79B2"/>
<path d="M14.125 60V42.5455H21.6591C22.9545 42.5455 24.0881 42.8011 25.0597 43.3125C26.0313 43.8239 26.7869 44.5426 27.3267 45.4688C27.8665 46.3949 28.1364 47.4773 28.1364 48.7159C28.1364 49.9659 27.858 51.0483 27.3011 51.9631C26.75 52.8778 25.9744 53.5824 24.9744 54.0767C23.9801 54.571 22.8182 54.8182 21.4886 54.8182H16.9886V51.1364H20.5341C21.0909 51.1364 21.5653 51.0398 21.9574 50.8466C22.3551 50.6477 22.6591 50.3665 22.8693 50.0028C23.0852 49.6392 23.1932 49.2102 23.1932 48.7159C23.1932 48.2159 23.0852 47.7898 22.8693 47.4375C22.6591 47.0795 22.3551 46.8068 21.9574 46.6193C21.5653 46.4261 21.0909 46.3295 20.5341 46.3295H18.8636V60H14.125ZM46.7841 51.2727C46.7841 53.2159 46.4063 54.8551 45.6506 56.1903C44.8949 57.5199 43.875 58.5284 42.5909 59.2159C41.3068 59.8977 39.875 60.2386 38.2955 60.2386C36.7045 60.2386 35.267 59.8949 33.983 59.2074C32.7045 58.5142 31.6875 57.5028 30.9318 56.1733C30.1818 54.8381 29.8068 53.2045 29.8068 51.2727C29.8068 49.3295 30.1818 47.6932 30.9318 46.3636C31.6875 45.0284 32.7045 44.0199 33.983 43.3381C35.267 42.6506 36.7045 42.3068 38.2955 42.3068C39.875 42.3068 41.3068 42.6506 42.5909 43.3381C43.875 44.0199 44.8949 45.0284 45.6506 46.3636C46.4063 47.6932 46.7841 49.3295 46.7841 51.2727ZM41.9091 51.2727C41.9091 50.2273 41.7699 49.3466 41.4915 48.6307C41.2188 47.9091 40.8125 47.3636 40.2727 46.9943C39.7386 46.6193 39.0795 46.4318 38.2955 46.4318C37.5114 46.4318 36.8494 46.6193 36.3097 46.9943C35.7756 47.3636 35.3693 47.9091 35.0909 48.6307C34.8182 49.3466 34.6818 50.2273 34.6818 51.2727C34.6818 52.3182 34.8182 53.2017 35.0909 53.9233C35.3693 54.6392 35.7756 55.1847 36.3097 55.5597C36.8494 55.929 37.5114 56.1136 38.2955 56.1136C39.0795 56.1136 39.7386 55.929 40.2727 55.5597C40.8125 55.1847 41.2188 54.6392 41.4915 53.9233C41.7699 53.2017 41.9091 52.3182 41.9091 51.2727ZM48.9766 60V42.5455H56.5107C57.8061 42.5455 58.9396 42.7812 59.9112 43.2528C60.8828 43.7244 61.6385 44.4034 62.1783 45.2898C62.718 46.1761 62.9879 47.2386 62.9879 48.4773C62.9879 49.7273 62.7095 50.7812 62.1527 51.6392C61.6016 52.4972 60.826 53.1449 59.826 53.5824C58.8317 54.0199 57.6697 54.2386 56.3402 54.2386H51.8402V50.5568H55.3857C55.9425 50.5568 56.4169 50.4886 56.8089 50.3523C57.2067 50.2102 57.5107 49.9858 57.7209 49.679C57.9368 49.3722 58.0447 48.9716 58.0447 48.4773C58.0447 47.9773 57.9368 47.571 57.7209 47.2585C57.5107 46.9403 57.2067 46.7074 56.8089 46.5597C56.4169 46.4062 55.9425 46.3295 55.3857 46.3295H53.7152V60H48.9766ZM59.2038 51.9886L63.5675 60H58.4197L54.1584 51.9886H59.2038ZM64.5305 46.3636V42.5455H79.701V46.3636H74.451V60H69.7805V46.3636H64.5305ZM81.4844 60V42.5455H93.7571V46.3636H86.223V49.3636H93.0071V53.1818H86.223V60H81.4844ZM112.409 51.2727C112.409 53.2159 112.031 54.8551 111.276 56.1903C110.52 57.5199 109.5 58.5284 108.216 59.2159C106.932 59.8977 105.5 60.2386 103.92 60.2386C102.33 60.2386 100.892 59.8949 99.608 59.2074C98.3295 58.5142 97.3125 57.5028 96.5568 56.1733C95.8068 54.8381 95.4318 53.2045 95.4318 51.2727C95.4318 49.3295 95.8068 47.6932 96.5568 46.3636C97.3125 45.0284 98.3295 44.0199 99.608 43.3381C100.892 42.6506 102.33 42.3068 103.92 42.3068C105.5 42.3068 106.932 42.6506 108.216 43.3381C109.5 44.0199 110.52 45.0284 111.276 46.3636C112.031 47.6932 112.409 49.3295 112.409 51.2727ZM107.534 51.2727C107.534 50.2273 107.395 49.3466 107.116 48.6307C106.844 47.9091 106.438 47.3636 105.898 46.9943C105.364 46.6193 104.705 46.4318 103.92 46.4318C103.136 46.4318 102.474 46.6193 101.935 46.9943C101.401 47.3636 100.994 47.9091 100.716 48.6307C100.443 49.3466 100.307 50.2273 100.307 51.2727C100.307 52.3182 100.443 53.2017 100.716 53.9233C100.994 54.6392 101.401 55.1847 101.935 55.5597C102.474 55.929 103.136 56.1136 103.92 56.1136C104.705 56.1136 105.364 55.929 105.898 55.5597C106.438 55.1847 106.844 54.6392 107.116 53.9233C107.395 53.2017 107.534 52.3182 107.534 51.2727ZM114.602 60V42.5455H119.34V56.1818H126.397V60H114.602ZM133.051 42.5455V60H128.312V42.5455H133.051ZM152.206 51.2727C152.206 53.2159 151.828 54.8551 151.072 56.1903C150.317 57.5199 149.297 58.5284 148.013 59.2159C146.729 59.8977 145.297 60.2386 143.717 60.2386C142.126 60.2386 140.689 59.8949 139.405 59.2074C138.126 58.5142 137.109 57.5028 136.354 56.1733C135.604 54.8381 135.229 53.2045 135.229 51.2727C135.229 49.3295 135.604 47.6932 136.354 46.3636C137.109 45.0284 138.126 44.0199 139.405 43.3381C140.689 42.6506 142.126 42.3068 143.717 42.3068C145.297 42.3068 146.729 42.6506 148.013 43.3381C149.297 44.0199 150.317 45.0284 151.072 46.3636C151.828 47.6932 152.206 49.3295 152.206 51.2727ZM147.331 51.2727C147.331 50.2273 147.192 49.3466 146.913 48.6307C146.641 47.9091 146.234 47.3636 145.695 46.9943C145.161 46.6193 144.501 46.4318 143.717 46.4318C142.933 46.4318 142.271 46.6193 141.732 46.9943C141.197 47.3636 140.791 47.9091 140.513 48.6307C140.24 49.3466 140.104 50.2273 140.104 51.2727C140.104 52.3182 140.24 53.2017 140.513 53.9233C140.791 54.6392 141.197 55.1847 141.732 55.5597C142.271 55.929 142.933 56.1136 143.717 56.1136C144.501 56.1136 145.161 55.929 145.695 55.5597C146.234 55.1847 146.641 54.6392 146.913 53.9233C147.192 53.2017 147.331 52.3182 147.331 51.2727Z" fill="white"/>
<g filter="url(#filter0_d_228_1207)">
<circle cx="188" cy="52" r="30" fill="#0E79B2"/>
</g>
<path d="M199.4 43.0001H193.033C192.267 43.0001 191.55 42.6001 191.167 41.9501L190.067 40.1334C189.233 38.7334 187.7 37.8667 186.067 37.8667H176.017C173.433 37.8667 171.333 39.9667 171.333 42.55V60.8667C171.333 63.7667 173.7 66.1334 176.6 66.1334H199.4C202.3 66.1334 204.667 63.7667 204.667 60.8667V48.2667C204.667 45.3667 202.3 43.0001 199.4 43.0001ZM173.833 42.55C173.833 41.35 174.817 40.3667 176.017 40.3667H186.067C186.817 40.3667 187.533 40.7667 187.933 41.4167L188.883 43.0001H173.833V42.55Z" fill="#FFB400"/>
<defs>
<filter id="filter0_d_228_1207" x="136" y="0" width="104" height="104" filterUnits="userSpaceOnUse" color-interpolation-filters="sRGB">
<feFlood flood-opacity="0" result="BackgroundImageFix"/>
<feColorMatrix in="SourceAlpha" type="matrix" values="0 0 0 0 0 0 0 0 0 0 0 0 0 0 0 0 0 0 127 0" result="hardAlpha"/>
<feMorphology radius="2" operator="dilate" in="SourceAlpha" result="effect1_dropShadow_228_1207"/>
<feOffset/>
<feGaussianBlur stdDeviation="10"/>
<feComposite in2="hardAlpha" operator="out"/>
<feColorMatrix type="matrix" values="0 0 0 0 0 0 0 0 0 0.0933036 0 0 0 0 0.1375 0 0 0 0.7 0"/>
<feBlend mode="normal" in2="BackgroundImageFix" result="effect1_dropShadow_228_1207"/>
<feBlend mode="normal" in="SourceGraphic" in2="effect1_dropShadow_228_1207" result="shape"/>
</filter>
</defs>
</svg>
