<svg width="227" height="104" viewBox="0 0 227 104" fill="none" xmlns="http://www.w3.org/2000/svg">
<rect y="29" width="180" height="45" rx="22.5" fill="#0E79B2"/>
<path d="M30.4205 49.0909H25.6136C25.5795 48.6932 25.4886 48.3324 25.3409 48.0085C25.1989 47.6847 25 47.4062 24.7443 47.1733C24.4943 46.9347 24.1903 46.7528 23.8324 46.6278C23.4744 46.4972 23.0682 46.4318 22.6136 46.4318C21.8182 46.4318 21.1449 46.625 20.5938 47.0114C20.0483 47.3977 19.6335 47.9517 19.3494 48.6733C19.071 49.3949 18.9318 50.2614 18.9318 51.2727C18.9318 52.3409 19.0739 53.2358 19.358 53.9574C19.6477 54.6733 20.0653 55.2131 20.6108 55.5767C21.1563 55.9347 21.8125 56.1136 22.5795 56.1136C23.017 56.1136 23.4091 56.0597 23.7557 55.9517C24.1023 55.8381 24.4034 55.6761 24.6591 55.4659C24.9148 55.2557 25.1222 55.0028 25.2812 54.7074C25.446 54.4062 25.5568 54.0682 25.6136 53.6932L30.4205 53.7273C30.3636 54.4659 30.1563 55.2187 29.7983 55.9858C29.4403 56.7472 28.9318 57.4517 28.2727 58.0994C27.6193 58.7415 26.8097 59.2585 25.8438 59.6506C24.8778 60.0426 23.7557 60.2386 22.4773 60.2386C20.875 60.2386 19.4375 59.8949 18.1648 59.2074C16.8977 58.5199 15.8949 57.5085 15.1562 56.1733C14.4233 54.8381 14.0568 53.2045 14.0568 51.2727C14.0568 49.3295 14.4318 47.6932 15.1818 46.3636C15.9318 45.0284 16.9432 44.0199 18.2159 43.3381C19.4886 42.6506 20.9091 42.3068 22.4773 42.3068C23.5795 42.3068 24.5938 42.4574 25.5199 42.7585C26.446 43.0597 27.2585 43.5 27.9574 44.0795C28.6563 44.6534 29.2188 45.3608 29.6449 46.2017C30.071 47.0426 30.3295 48.0057 30.4205 49.0909ZM49.4794 51.2727C49.4794 53.2159 49.1016 54.8551 48.3459 56.1903C47.5902 57.5199 46.5703 58.5284 45.2862 59.2159C44.0021 59.8977 42.5703 60.2386 40.9908 60.2386C39.3999 60.2386 37.9624 59.8949 36.6783 59.2074C35.3999 58.5142 34.3828 57.5028 33.6271 56.1733C32.8771 54.8381 32.5021 53.2045 32.5021 51.2727C32.5021 49.3295 32.8771 47.6932 33.6271 46.3636C34.3828 45.0284 35.3999 44.0199 36.6783 43.3381C37.9624 42.6506 39.3999 42.3068 40.9908 42.3068C42.5703 42.3068 44.0021 42.6506 45.2862 43.3381C46.5703 44.0199 47.5902 45.0284 48.3459 46.3636C49.1016 47.6932 49.4794 49.3295 49.4794 51.2727ZM44.6044 51.2727C44.6044 50.2273 44.4652 49.3466 44.1868 48.6307C43.9141 47.9091 43.5078 47.3636 42.968 46.9943C42.4339 46.6193 41.7749 46.4318 40.9908 46.4318C40.2067 46.4318 39.5447 46.6193 39.005 46.9943C38.4709 47.3636 38.0646 47.9091 37.7862 48.6307C37.5135 49.3466 37.3771 50.2273 37.3771 51.2727C37.3771 52.3182 37.5135 53.2017 37.7862 53.9233C38.0646 54.6392 38.4709 55.1847 39.005 55.5597C39.5447 55.929 40.2067 56.1136 40.9908 56.1136C41.7749 56.1136 42.4339 55.929 42.968 55.5597C43.5078 55.1847 43.9141 54.6392 44.1868 53.9233C44.4652 53.2017 44.6044 52.3182 44.6044 51.2727ZM66.7741 42.5455V60H62.8196L56.5128 50.8295H56.4105V60H51.6719V42.5455H55.6946L61.8991 51.6818H62.0355V42.5455H66.7741ZM68.5384 46.3636V42.5455H83.7088V46.3636H78.4588V60H73.7884V46.3636H68.5384ZM87.8232 60H82.7095L88.4709 42.5455H94.9482L100.71 60H95.5959L91.7777 47.3523H91.6413L87.8232 60ZM86.8686 53.1136H96.4822V56.6591H86.8686V53.1136ZM117.866 49.0909H113.059C113.025 48.6932 112.934 48.3324 112.786 48.0085C112.644 47.6847 112.445 47.4062 112.19 47.1733C111.94 46.9347 111.636 46.7528 111.278 46.6278C110.92 46.4972 110.513 46.4318 110.059 46.4318C109.263 46.4318 108.59 46.625 108.039 47.0114C107.494 47.3977 107.079 47.9517 106.795 48.6733C106.516 49.3949 106.377 50.2614 106.377 51.2727C106.377 52.3409 106.519 53.2358 106.803 53.9574C107.093 54.6733 107.511 55.2131 108.056 55.5767C108.602 55.9347 109.258 56.1136 110.025 56.1136C110.462 56.1136 110.854 56.0597 111.201 55.9517C111.548 55.8381 111.849 55.6761 112.104 55.4659C112.36 55.2557 112.567 55.0028 112.727 54.7074C112.891 54.4062 113.002 54.0682 113.059 53.6932L117.866 53.7273C117.809 54.4659 117.602 55.2187 117.244 55.9858C116.886 56.7472 116.377 57.4517 115.718 58.0994C115.065 58.7415 114.255 59.2585 113.289 59.6506C112.323 60.0426 111.201 60.2386 109.923 60.2386C108.32 60.2386 106.883 59.8949 105.61 59.2074C104.343 58.5199 103.34 57.5085 102.602 56.1733C101.869 54.8381 101.502 53.2045 101.502 51.2727C101.502 49.3295 101.877 47.6932 102.627 46.3636C103.377 45.0284 104.388 44.0199 105.661 43.3381C106.934 42.6506 108.354 42.3068 109.923 42.3068C111.025 42.3068 112.039 42.4574 112.965 42.7585C113.891 43.0597 114.704 43.5 115.403 44.0795C116.102 44.6534 116.664 45.3608 117.09 46.2017C117.516 47.0426 117.775 48.0057 117.866 49.0909ZM119.538 46.3636V42.5455H134.709V46.3636H129.459V60H124.788V46.3636H119.538Z" fill="white"/>
<g filter="url(#filter0_d_228_1208)">
<circle cx="175" cy="52" r="30" fill="#0E79B2"/>
</g>
<path d="M173.633 52.1C174.45 52.9 175.567 52.9 176.383 52.1L186.917 41.6333L188.867 39.6833C188.133 39.3 187.317 39.0833 186.433 39.0833H163.583C162.7 39.0833 161.883 39.3 161.15 39.6833L163.1 41.6333L173.633 52.1Z" fill="#FFB400"/>
<path d="M169.883 51.9L161.117 43.1666L159.283 41.35C158.683 42.2 158.35 43.2166 158.35 44.3333V59.6666C158.35 60.6 158.6 61.4833 159.017 62.2333C159.033 62.2166 159.033 62.2166 159.05 62.2L160.95 60.3833L169.883 51.9Z" fill="#FFB400"/>
<path d="M178.483 53.5333L178.15 53.8667C177.25 54.75 176.133 55.2 175 55.2C173.883 55.2 172.767 54.75 171.867 53.8667L171.65 53.65L162.65 62.25L160.783 64.0167C160.767 64.0333 160.75 64.05 160.733 64.05C161.55 64.6 162.517 64.9167 163.583 64.9167H186.433C187.483 64.9167 188.467 64.6 189.283 64.05L187.417 62.2333L178.483 53.5333Z" fill="#FFB400"/>
<path d="M190.75 41.35L188.917 43.1666L180.25 51.7666L189.083 60.3833L191 62.25C191.433 61.5 191.683 60.6 191.683 59.6666V44.3333C191.683 43.2166 191.35 42.2 190.75 41.35Z" fill="#FFB400"/>
<defs>
<filter id="filter0_d_228_1208" x="123" y="0" width="104" height="104" filterUnits="userSpaceOnUse" color-interpolation-filters="sRGB">
<feFlood flood-opacity="0" result="BackgroundImageFix"/>
<feColorMatrix in="SourceAlpha" type="matrix" values="0 0 0 0 0 0 0 0 0 0 0 0 0 0 0 0 0 0 127 0" result="hardAlpha"/>
<feMorphology radius="2" operator="dilate" in="SourceAlpha" result="effect1_dropShadow_228_1208"/>
<feOffset/>
<feGaussianBlur stdDeviation="10"/>
<feComposite in2="hardAlpha" operator="out"/>
<feColorMatrix type="matrix" values="0 0 0 0 0 0 0 0 0 0.0933036 0 0 0 0 0.1375 0 0 0 0.7 0"/>
<feBlend mode="normal" in2="BackgroundImageFix" result="effect1_dropShadow_228_1208"/>
<feBlend mode="normal" in="SourceGraphic" in2="effect1_dropShadow_228_1208" result="shape"/>
</filter>
</defs>
</svg>
