<svg width="204" height="104" viewBox="0 0 204 104" fill="none" xmlns="http://www.w3.org/2000/svg">
<rect y="29" width="164" height="45" rx="22.5" fill="#0E79B2"/>
<path d="M25.5341 48C25.4886 47.4318 25.2756 46.9886 24.8949 46.6705C24.5199 46.3523 23.9489 46.1932 23.1818 46.1932C22.6932 46.1932 22.2926 46.2528 21.9801 46.3722C21.6733 46.4858 21.446 46.642 21.2983 46.8409C21.1506 47.0398 21.0739 47.267 21.0682 47.5227C21.0568 47.733 21.0938 47.9233 21.179 48.0938C21.2699 48.2585 21.4119 48.4091 21.6051 48.5455C21.7983 48.6761 22.0455 48.7955 22.3466 48.9034C22.6477 49.0114 23.0057 49.108 23.4205 49.1932L24.8523 49.5C25.8182 49.7045 26.6449 49.9744 27.3324 50.3097C28.0199 50.6449 28.5824 51.0398 29.0199 51.4943C29.4574 51.9432 29.7784 52.4489 29.983 53.0114C30.1932 53.5739 30.3011 54.1875 30.3068 54.8523C30.3011 56 30.0142 56.9716 29.446 57.767C28.8778 58.5625 28.0653 59.1676 27.0085 59.5824C25.9574 59.9972 24.6932 60.2045 23.2159 60.2045C21.6989 60.2045 20.375 59.9801 19.2443 59.5312C18.1193 59.0824 17.2443 58.392 16.6193 57.4602C16 56.5227 15.6875 55.3239 15.6818 53.8636H20.1818C20.2102 54.3977 20.3438 54.8466 20.5824 55.2102C20.821 55.5739 21.1563 55.8494 21.5881 56.0369C22.0256 56.2244 22.5455 56.3182 23.1477 56.3182C23.6534 56.3182 24.0767 56.2557 24.4176 56.1307C24.7585 56.0057 25.017 55.8324 25.1932 55.6108C25.3693 55.3892 25.4602 55.1364 25.4659 54.8523C25.4602 54.5852 25.3722 54.3523 25.2017 54.1534C25.0369 53.9489 24.7642 53.767 24.3835 53.608C24.0028 53.4432 23.4886 53.2898 22.8409 53.1477L21.1023 52.7727C19.5568 52.4375 18.3381 51.8778 17.446 51.0938C16.5597 50.304 16.1193 49.2273 16.125 47.8636C16.1193 46.7557 16.4148 45.7869 17.0114 44.9574C17.6136 44.1222 18.446 43.4716 19.5085 43.0057C20.5767 42.5398 21.8011 42.3068 23.1818 42.3068C24.5909 42.3068 25.8097 42.5426 26.8381 43.0142C27.8665 43.4858 28.6591 44.1506 29.2159 45.0085C29.7784 45.8608 30.0625 46.858 30.0682 48H25.5341ZM36.848 42.5455V60H32.1094V42.5455H36.848ZM50.429 48.3068C50.3551 48.0057 50.2386 47.7415 50.0795 47.5142C49.9205 47.2812 49.7216 47.0852 49.483 46.9261C49.25 46.7614 48.9773 46.6392 48.6648 46.5597C48.358 46.4744 48.0199 46.4318 47.6506 46.4318C46.8551 46.4318 46.1761 46.6222 45.6136 47.0028C45.0568 47.3835 44.6307 47.9318 44.3352 48.6477C44.0455 49.3636 43.9006 50.2273 43.9006 51.2386C43.9006 52.2614 44.0398 53.1364 44.3182 53.8636C44.5966 54.5909 45.0114 55.1477 45.5625 55.5341C46.1136 55.9205 46.7983 56.1136 47.6165 56.1136C48.3381 56.1136 48.9375 56.0085 49.4148 55.7983C49.8977 55.5881 50.2585 55.2898 50.4972 54.9034C50.7358 54.517 50.8551 54.0625 50.8551 53.5398L51.6733 53.625H47.6847V50.25H55.4233V52.6705C55.4233 54.2614 55.0852 55.6222 54.4091 56.7528C53.7386 57.8778 52.8125 58.7415 51.6307 59.3438C50.4545 59.9403 49.1051 60.2386 47.5824 60.2386C45.8835 60.2386 44.392 59.8778 43.108 59.1562C41.8239 58.4347 40.821 57.4062 40.0994 56.071C39.3835 54.7358 39.0256 53.1477 39.0256 51.3068C39.0256 49.8636 39.2443 48.5852 39.6818 47.4716C40.125 46.358 40.7386 45.4176 41.5227 44.6506C42.3068 43.8778 43.2131 43.2955 44.2415 42.9034C45.2699 42.5057 46.3722 42.3068 47.5483 42.3068C48.5824 42.3068 49.5426 42.4545 50.429 42.75C51.321 43.0398 52.108 43.4545 52.7898 43.9943C53.4773 44.5284 54.0313 45.1619 54.4517 45.8949C54.8722 46.6278 55.1278 47.4318 55.2188 48.3068H50.429ZM72.7351 42.5455V60H68.7805L62.4737 50.8295H62.3714V60H57.6328V42.5455H61.6555L67.8601 51.6818H67.9964V42.5455H72.7351ZM90.0874 42.5455H94.826V53.7273C94.826 55.0568 94.5078 56.2074 93.8714 57.179C93.2408 58.1449 92.3601 58.892 91.2294 59.4205C90.0987 59.9432 88.7862 60.2045 87.2919 60.2045C85.7862 60.2045 84.468 59.9432 83.3374 59.4205C82.2067 58.892 81.326 58.1449 80.6953 57.179C80.0703 56.2074 79.7578 55.0568 79.7578 53.7273V42.5455H84.4964V53.3182C84.4964 53.858 84.6158 54.3409 84.8544 54.767C85.093 55.1875 85.4226 55.517 85.843 55.7557C86.2692 55.9943 86.7521 56.1136 87.2919 56.1136C87.8374 56.1136 88.3203 55.9943 88.7408 55.7557C89.1612 55.517 89.4908 55.1875 89.7294 54.767C89.968 54.3409 90.0874 53.858 90.0874 53.3182V42.5455ZM97.0781 60V42.5455H104.612C105.908 42.5455 107.041 42.8011 108.013 43.3125C108.984 43.8239 109.74 44.5426 110.28 45.4688C110.82 46.3949 111.089 47.4773 111.089 48.7159C111.089 49.9659 110.811 51.0483 110.254 51.9631C109.703 52.8778 108.928 53.5824 107.928 54.0767C106.933 54.571 105.771 54.8182 104.442 54.8182H99.9418V51.1364H103.487C104.044 51.1364 104.518 51.0398 104.911 50.8466C105.308 50.6477 105.612 50.3665 105.822 50.0028C106.038 49.6392 106.146 49.2102 106.146 48.7159C106.146 48.2159 106.038 47.7898 105.822 47.4375C105.612 47.0795 105.308 46.8068 104.911 46.6193C104.518 46.4261 104.044 46.3295 103.487 46.3295H101.817V60H97.0781Z" fill="white"/>
<g filter="url(#filter0_d_228_1209)">
<circle cx="152" cy="52" r="30" fill="#0E79B2"/>
</g>
<path d="M170.124 66.3654C170.62 65.3449 170.206 64.1038 169.186 63.5798C158.816 58.4224 144.805 58.5052 134.518 63.8005C133.498 64.3245 133.111 65.5655 133.635 66.586C133.994 67.3031 134.739 67.7168 135.483 67.7168C135.814 67.7168 136.118 67.6341 136.421 67.4962C145.55 62.78 158.126 62.7248 167.338 67.3031C168.386 67.7995 169.627 67.3858 170.124 66.3654Z" fill="#FFB400"/>
<path d="M152.086 54.1198C157.685 54.1198 162.263 49.5691 162.263 43.9428C162.263 38.3441 157.713 33.7659 152.086 33.7659C146.46 33.7659 141.909 38.3165 141.909 43.9428C141.909 49.5691 146.488 54.1198 152.086 54.1198Z" fill="#FFB400"/>
<defs>
<filter id="filter0_d_228_1209" x="100" y="0" width="104" height="104" filterUnits="userSpaceOnUse" color-interpolation-filters="sRGB">
<feFlood flood-opacity="0" result="BackgroundImageFix"/>
<feColorMatrix in="SourceAlpha" type="matrix" values="0 0 0 0 0 0 0 0 0 0 0 0 0 0 0 0 0 0 127 0" result="hardAlpha"/>
<feMorphology radius="2" operator="dilate" in="SourceAlpha" result="effect1_dropShadow_228_1209"/>
<feOffset/>
<feGaussianBlur stdDeviation="10"/>
<feComposite in2="hardAlpha" operator="out"/>
<feColorMatrix type="matrix" values="0 0 0 0 0 0 0 0 0 0.0933036 0 0 0 0 0.1375 0 0 0 0.7 0"/>
<feBlend mode="normal" in2="BackgroundImageFix" result="effect1_dropShadow_228_1209"/>
<feBlend mode="normal" in="SourceGraphic" in2="effect1_dropShadow_228_1209" result="shape"/>
</filter>
</defs>
</svg>
