<svg width="195" height="104" viewBox="0 0 195 104" fill="none" xmlns="http://www.w3.org/2000/svg">
<rect y="31" width="142" height="45" rx="22.5" fill="#0E79B2"/>
<path d="M23.6591 63H18.5455L24.3068 45.5455H30.7841L36.5455 63H31.4318L27.6136 50.3523H27.4773L23.6591 63ZM22.7045 56.1136H32.3182V59.6591H22.7045V56.1136ZM38.2266 63V45.5455H45.7947C47.1243 45.5455 48.2408 45.7244 49.1442 46.0824C50.0533 46.4403 50.7379 46.946 51.1982 47.5994C51.6641 48.2528 51.897 49.0227 51.897 49.9091C51.897 50.5511 51.755 51.1364 51.4709 51.6648C51.1925 52.1932 50.8004 52.6364 50.2947 52.9943C49.7891 53.3466 49.1982 53.5909 48.522 53.7273V53.8977C49.272 53.9261 49.9538 54.1165 50.5675 54.4688C51.1811 54.8153 51.6697 55.2955 52.0334 55.9091C52.397 56.517 52.5788 57.233 52.5788 58.0568C52.5788 59.0114 52.3288 59.8608 51.8288 60.6051C51.3345 61.3494 50.63 61.9347 49.7152 62.3608C48.8004 62.7869 47.7095 63 46.4425 63H38.2266ZM42.9652 59.2159H45.1811C45.9766 59.2159 46.5732 59.0682 46.9709 58.7727C47.3686 58.4716 47.5675 58.0284 47.5675 57.4432C47.5675 57.0341 47.4737 56.6875 47.2862 56.4034C47.0987 56.1193 46.8317 55.9034 46.4851 55.7557C46.1442 55.608 45.7322 55.5341 45.2493 55.5341H42.9652V59.2159ZM42.9652 52.6023H44.9084C45.3232 52.6023 45.6896 52.5369 46.0078 52.4062C46.326 52.2756 46.5732 52.0881 46.7493 51.8438C46.9311 51.5938 47.022 51.2898 47.022 50.9318C47.022 50.392 46.8288 49.9801 46.4425 49.696C46.0561 49.4062 45.5675 49.2614 44.9766 49.2614H42.9652V52.6023ZM71.1669 54.2727C71.1669 56.2159 70.7891 57.8551 70.0334 59.1903C69.2777 60.5199 68.2578 61.5284 66.9737 62.2159C65.6896 62.8977 64.2578 63.2386 62.6783 63.2386C61.0874 63.2386 59.6499 62.8949 58.3658 62.2074C57.0874 61.5142 56.0703 60.5028 55.3146 59.1733C54.5646 57.8381 54.1896 56.2045 54.1896 54.2727C54.1896 52.3295 54.5646 50.6932 55.3146 49.3636C56.0703 48.0284 57.0874 47.0199 58.3658 46.3381C59.6499 45.6506 61.0874 45.3068 62.6783 45.3068C64.2578 45.3068 65.6896 45.6506 66.9737 46.3381C68.2578 47.0199 69.2777 48.0284 70.0334 49.3636C70.7891 50.6932 71.1669 52.3295 71.1669 54.2727ZM66.2919 54.2727C66.2919 53.2273 66.1527 52.3466 65.8743 51.6307C65.6016 50.9091 65.1953 50.3636 64.6555 49.9943C64.1214 49.6193 63.4624 49.4318 62.6783 49.4318C61.8942 49.4318 61.2322 49.6193 60.6925 49.9943C60.1584 50.3636 59.7521 50.9091 59.4737 51.6307C59.201 52.3466 59.0646 53.2273 59.0646 54.2727C59.0646 55.3182 59.201 56.2017 59.4737 56.9233C59.7521 57.6392 60.1584 58.1847 60.6925 58.5597C61.2322 58.929 61.8942 59.1136 62.6783 59.1136C63.4624 59.1136 64.1214 58.929 64.6555 58.5597C65.1953 58.1847 65.6016 57.6392 65.8743 56.9233C66.1527 56.2017 66.2919 55.3182 66.2919 54.2727ZM83.6889 45.5455H88.4276V56.7273C88.4276 58.0568 88.1094 59.2074 87.473 60.179C86.8423 61.1449 85.9616 61.892 84.831 62.4205C83.7003 62.9432 82.3878 63.2045 80.8935 63.2045C79.3878 63.2045 78.0696 62.9432 76.9389 62.4205C75.8082 61.892 74.9276 61.1449 74.2969 60.179C73.6719 59.2074 73.3594 58.0568 73.3594 56.7273V45.5455H78.098V56.3182C78.098 56.858 78.2173 57.3409 78.456 57.767C78.6946 58.1875 79.0241 58.517 79.4446 58.7557C79.8707 58.9943 80.3537 59.1136 80.8935 59.1136C81.4389 59.1136 81.9219 58.9943 82.3423 58.7557C82.7628 58.517 83.0923 58.1875 83.331 57.767C83.5696 57.3409 83.6889 56.858 83.6889 56.3182V45.5455ZM90.2024 49.3636V45.5455H105.373V49.3636H100.123V63H95.4524V49.3636H90.2024Z" fill="white"/>
<g filter="url(#filter0_d_228_1205)">
<circle cx="143" cy="52" r="30" fill="#0E79B2"/>
</g>
<path d="M142.473 51.1747C146.881 51.1747 150.486 47.5916 150.486 43.1832C150.486 38.7748 146.903 35.1699 142.473 35.1699C138.064 35.1699 134.481 38.7531 134.481 43.1832C134.481 47.6133 138.064 51.1747 142.473 51.1747Z" fill="#FFB400"/>
<path d="M148.727 54.2803H137.283C132.158 54.2803 128.01 58.4498 128.01 63.5531V65.0298C128.01 67.1145 129.726 68.8301 131.81 68.8301H154.2C156.284 68.8301 158 67.1145 158 65.0298V63.5748C158 58.4498 153.831 54.2803 148.727 54.2803Z" fill="#FFB400"/>
<defs>
<filter id="filter0_d_228_1205" x="91" y="0" width="104" height="104" filterUnits="userSpaceOnUse" color-interpolation-filters="sRGB">
<feFlood flood-opacity="0" result="BackgroundImageFix"/>
<feColorMatrix in="SourceAlpha" type="matrix" values="0 0 0 0 0 0 0 0 0 0 0 0 0 0 0 0 0 0 127 0" result="hardAlpha"/>
<feMorphology radius="2" operator="dilate" in="SourceAlpha" result="effect1_dropShadow_228_1205"/>
<feOffset/>
<feGaussianBlur stdDeviation="10"/>
<feComposite in2="hardAlpha" operator="out"/>
<feColorMatrix type="matrix" values="0 0 0 0 0 0 0 0 0 0.0933036 0 0 0 0 0.1375 0 0 0 0.7 0"/>
<feBlend mode="normal" in2="BackgroundImageFix" result="effect1_dropShadow_228_1205"/>
<feBlend mode="normal" in="SourceGraphic" in2="effect1_dropShadow_228_1205" result="shape"/>
</filter>
</defs>
</svg>
