<svg width="104" height="104" viewBox="0 0 104 104" fill="none" xmlns="http://www.w3.org/2000/svg">
<g filter="url(#filter0_d_35_256)">
<circle cx="52" cy="52" r="30" fill="#0E79B2"/>
</g>
<path d="M68 51.0247V61.7607C68 65.2007 65.312 68.0007 62 68.0007H56V60.3207C56 59.2967 55.168 58.4647 54.144 58.4647H49.856C48.832 58.4647 48.016 59.2967 48.016 60.3207V68.0007H42C38.688 68.0007 36 65.2007 36 61.7607V51.0247C36 49.1847 36.784 47.4407 38.128 46.2407L48.128 37.4727C50.384 35.5047 53.632 35.5047 55.872 37.4727L65.872 46.2407C67.232 47.4407 68 49.1847 68 51.0247Z" fill="#FFB400"/>
<defs>
<filter id="filter0_d_35_256" x="0" y="0" width="104" height="104" filterUnits="userSpaceOnUse" color-interpolation-filters="sRGB">
<feFlood flood-opacity="0" result="BackgroundImageFix"/>
<feColorMatrix in="SourceAlpha" type="matrix" values="0 0 0 0 0 0 0 0 0 0 0 0 0 0 0 0 0 0 127 0" result="hardAlpha"/>
<feMorphology radius="2" operator="dilate" in="SourceAlpha" result="effect1_dropShadow_35_256"/>
<feOffset/>
<feGaussianBlur stdDeviation="10"/>
<feComposite in2="hardAlpha" operator="out"/>
<feColorMatrix type="matrix" values="0 0 0 0 0 0 0 0 0 0.0933036 0 0 0 0 0.1375 0 0 0 0.7 0"/>
<feBlend mode="normal" in2="BackgroundImageFix" result="effect1_dropShadow_35_256"/>
<feBlend mode="normal" in="SourceGraphic" in2="effect1_dropShadow_35_256" result="shape"/>
</filter>
</defs>
</svg>
