<svg width="187" height="104" viewBox="0 0 187 104" fill="none" xmlns="http://www.w3.org/2000/svg">
<rect y="29" width="135" height="45" rx="22.5" fill="#0E79B2"/>
<path d="M18.125 60V42.5455H22.8636V49.3636H29.1364V42.5455H33.875V60H29.1364V53.1818H22.8636V60H18.125ZM53.0341 51.2727C53.0341 53.2159 52.6563 54.8551 51.9006 56.1903C51.1449 57.5199 50.125 58.5284 48.8409 59.2159C47.5568 59.8977 46.125 60.2386 44.5455 60.2386C42.9545 60.2386 41.517 59.8949 40.233 59.2074C38.9545 58.5142 37.9375 57.5028 37.1818 56.1733C36.4318 54.8381 36.0568 53.2045 36.0568 51.2727C36.0568 49.3295 36.4318 47.6932 37.1818 46.3636C37.9375 45.0284 38.9545 44.0199 40.233 43.3381C41.517 42.6506 42.9545 42.3068 44.5455 42.3068C46.125 42.3068 47.5568 42.6506 48.8409 43.3381C50.125 44.0199 51.1449 45.0284 51.9006 46.3636C52.6563 47.6932 53.0341 49.3295 53.0341 51.2727ZM48.1591 51.2727C48.1591 50.2273 48.0199 49.3466 47.7415 48.6307C47.4688 47.9091 47.0625 47.3636 46.5227 46.9943C45.9886 46.6193 45.3295 46.4318 44.5455 46.4318C43.7614 46.4318 43.0994 46.6193 42.5597 46.9943C42.0256 47.3636 41.6193 47.9091 41.3409 48.6307C41.0682 49.3466 40.9318 50.2273 40.9318 51.2727C40.9318 52.3182 41.0682 53.2017 41.3409 53.9233C41.6193 54.6392 42.0256 55.1847 42.5597 55.5597C43.0994 55.929 43.7614 56.1136 44.5455 56.1136C45.3295 56.1136 45.9886 55.929 46.5227 55.5597C47.0625 55.1847 47.4688 54.6392 47.7415 53.9233C48.0199 53.2017 48.1591 52.3182 48.1591 51.2727ZM55.2266 42.5455H61.1243L65.1811 52.4318H65.3857L69.4425 42.5455H75.3402V60H70.7038V49.9091H70.5675L66.6811 59.8636H63.8857L59.9993 49.8409H59.8629V60H55.2266V42.5455ZM77.5859 60V42.5455H90.1655V46.3636H82.3246V49.3636H89.5178V53.1818H82.3246V56.1818H90.1314V60H77.5859Z" fill="white"/>
<g filter="url(#filter0_d_228_1204)">
<circle cx="135" cy="52" r="30" fill="#0E79B2"/>
</g>
<path d="M151 51.0247V61.7607C151 65.2007 148.312 68.0007 145 68.0007H139V60.3207C139 59.2967 138.168 58.4647 137.144 58.4647H132.856C131.832 58.4647 131.016 59.2967 131.016 60.3207V68.0007H125C121.688 68.0007 119 65.2007 119 61.7607V51.0247C119 49.1847 119.784 47.4407 121.128 46.2407L131.128 37.4727C133.384 35.5047 136.632 35.5047 138.872 37.4727L148.872 46.2407C150.232 47.4407 151 49.1847 151 51.0247Z" fill="#FFB400"/>
<defs>
<filter id="filter0_d_228_1204" x="83" y="0" width="104" height="104" filterUnits="userSpaceOnUse" color-interpolation-filters="sRGB">
<feFlood flood-opacity="0" result="BackgroundImageFix"/>
<feColorMatrix in="SourceAlpha" type="matrix" values="0 0 0 0 0 0 0 0 0 0 0 0 0 0 0 0 0 0 127 0" result="hardAlpha"/>
<feMorphology radius="2" operator="dilate" in="SourceAlpha" result="effect1_dropShadow_228_1204"/>
<feOffset/>
<feGaussianBlur stdDeviation="10"/>
<feComposite in2="hardAlpha" operator="out"/>
<feColorMatrix type="matrix" values="0 0 0 0 0 0 0 0 0 0.0933036 0 0 0 0 0.1375 0 0 0 0.7 0"/>
<feBlend mode="normal" in2="BackgroundImageFix" result="effect1_dropShadow_228_1204"/>
<feBlend mode="normal" in="SourceGraphic" in2="effect1_dropShadow_228_1204" result="shape"/>
</filter>
</defs>
</svg>
