<svg width="80" height="80" viewBox="0 0 80 80" fill="none" xmlns="http://www.w3.org/2000/svg">
<g filter="url(#filter0_d_35_265)">
<circle cx="40" cy="40" r="18" fill="#9F2042"/>
</g>
<path d="M50 39.3899V46.0999C50 48.2499 48.32 49.9999 46.25 49.9999H42.5V45.1999C42.5 44.5599 41.98 44.0399 41.34 44.0399H38.66C38.02 44.0399 37.51 44.5599 37.51 45.1999V49.9999H33.75C31.68 49.9999 30 48.2499 30 46.0999V39.3899C30 38.2399 30.49 37.1499 31.33 36.3999L37.58 30.9199C38.99 29.6899 41.02 29.6899 42.42 30.9199L48.67 36.3999C49.52 37.1499 50 38.2399 50 39.3899Z" fill="#FFB400"/>
<defs>
<filter id="filter0_d_35_265" x="0" y="0" width="80" height="80" filterUnits="userSpaceOnUse" color-interpolation-filters="sRGB">
<feFlood flood-opacity="0" result="BackgroundImageFix"/>
<feColorMatrix in="SourceAlpha" type="matrix" values="0 0 0 0 0 0 0 0 0 0 0 0 0 0 0 0 0 0 127 0" result="hardAlpha"/>
<feMorphology radius="2" operator="dilate" in="SourceAlpha" result="effect1_dropShadow_35_265"/>
<feOffset/>
<feGaussianBlur stdDeviation="10"/>
<feComposite in2="hardAlpha" operator="out"/>
<feColorMatrix type="matrix" values="0 0 0 0 0 0 0 0 0 0 0 0 0 0 0 0 0 0 0.7 0"/>
<feBlend mode="normal" in2="BackgroundImageFix" result="effect1_dropShadow_35_265"/>
<feBlend mode="normal" in="SourceGraphic" in2="effect1_dropShadow_35_265" result="shape"/>
</filter>
</defs>
</svg>
