<svg width="36" height="35" viewBox="0 0 36 35" fill="none" xmlns="http://www.w3.org/2000/svg">
<ellipse cx="18" cy="17.5" rx="18" ry="17.5" fill="#13262F"/>
<path d="M14.2672 17.8244C14.2672 15.6574 16.0229 13.9002 18.1893 13.9002C20.3557 13.9002 22.1124 15.6574 22.1124 17.8244C22.1124 19.9914 20.3557 21.7486 18.1893 21.7486C16.0229 21.7486 14.2672 19.9914 14.2672 17.8244ZM12.1465 17.8244C12.1465 21.1629 14.8519 23.869 18.1893 23.869C21.5268 23.869 24.2322 21.1629 24.2322 17.8244C24.2322 14.486 21.5268 11.7798 18.1893 11.7798C14.8519 11.7798 12.1465 14.486 12.1465 17.8244ZM23.0592 11.5401C23.0591 11.8195 23.1418 12.0927 23.2969 12.325C23.452 12.5574 23.6725 12.7385 23.9305 12.8456C24.1885 12.9526 24.4724 12.9807 24.7464 12.9263C25.0203 12.8719 25.272 12.7374 25.4696 12.54C25.6672 12.3425 25.8018 12.0908 25.8564 11.8168C25.911 11.5428 25.8831 11.2588 25.7764 11.0006C25.6696 10.7425 25.4887 10.5218 25.2565 10.3665C25.0243 10.2112 24.7513 10.1282 24.472 10.1281H24.4714C24.0971 10.1283 23.738 10.2771 23.4733 10.5418C23.2085 10.8066 23.0596 11.1656 23.0592 11.5401ZM13.4349 27.4063C12.2876 27.354 11.664 27.1628 11.2495 27.0013C10.7001 26.7874 10.3081 26.5325 9.8959 26.1208C9.48372 25.7091 9.22859 25.3173 9.01563 24.7677C8.85407 24.3534 8.66296 23.7294 8.6108 22.5817C8.55375 21.3409 8.54236 20.9681 8.54236 17.8245C8.54236 14.6809 8.55469 14.3092 8.6108 13.0673C8.66305 11.9196 8.85558 11.2969 9.01563 10.8813C9.22953 10.3317 9.48429 9.93956 9.8959 9.52726C10.3075 9.11497 10.6992 8.85976 11.2495 8.64674C11.6638 8.48514 12.2876 8.29397 13.4349 8.2418C14.6754 8.18473 15.0481 8.17333 18.1893 8.17333C21.3306 8.17333 21.7036 8.18567 22.9451 8.2418C24.0925 8.29406 24.7151 8.48665 25.1306 8.64674C25.68 8.85976 26.072 9.11554 26.4842 9.52726C26.8964 9.93899 27.1506 10.3317 27.3645 10.8813C27.526 11.2957 27.7171 11.9196 27.7693 13.0673C27.8263 14.3092 27.8377 14.6809 27.8377 17.8245C27.8377 20.9681 27.8263 21.3398 27.7693 22.5817C27.717 23.7294 27.525 24.3532 27.3645 24.7677C27.1506 25.3173 26.8958 25.7095 26.4842 26.1208C26.0726 26.5322 25.68 26.7874 25.1306 27.0013C24.7163 27.1629 24.0925 27.3541 22.9451 27.4063C21.7047 27.4634 21.332 27.4747 18.1893 27.4747C15.0466 27.4747 14.675 27.4634 13.4349 27.4063ZM13.3375 6.12402C12.0847 6.18109 11.2286 6.3798 10.481 6.67079C9.70676 6.9713 9.05131 7.37446 8.39633 8.02859C7.74136 8.68272 7.33935 9.33939 7.03893 10.1139C6.74802 10.8622 6.54937 11.718 6.49232 12.9712C6.43433 14.2263 6.42105 14.6276 6.42105 17.8244C6.42105 21.0212 6.43433 21.4225 6.49232 22.6776C6.54937 23.9309 6.74802 24.7867 7.03893 25.535C7.33935 26.309 7.74145 26.9664 8.39633 27.6202C9.05122 28.2741 9.70676 28.6767 10.481 28.978C11.23 29.269 12.0847 29.4677 13.3375 29.5248C14.5929 29.5819 14.9934 29.5961 18.1893 29.5961C21.3852 29.5961 21.7864 29.5828 23.0412 29.5248C24.2941 29.4677 25.1496 29.269 25.8977 28.978C26.6714 28.6767 27.3274 28.2744 27.9823 27.6202C28.6373 26.9661 29.0385 26.309 29.3397 25.535C29.6307 24.7867 29.8302 23.9308 29.8864 22.6776C29.9434 21.4216 29.9567 21.0212 29.9567 17.8244C29.9567 14.6276 29.9434 14.2263 29.8864 12.9712C29.8293 11.7179 29.6307 10.8617 29.3397 10.1139C29.0385 9.33986 28.6363 8.68375 27.9823 8.02859C27.3284 7.37342 26.6714 6.9713 25.8986 6.67079C25.1496 6.3798 24.294 6.18015 23.0421 6.12402C21.7873 6.06695 21.3862 6.05273 18.1903 6.05273C14.9944 6.05273 14.5929 6.06601 13.3375 6.12402Z" fill="#0E79B2"/>
<path d="M14.2672 17.8244C14.2672 15.6574 16.0229 13.9002 18.1893 13.9002C20.3557 13.9002 22.1124 15.6574 22.1124 17.8244C22.1124 19.9914 20.3557 21.7486 18.1893 21.7486C16.0229 21.7486 14.2672 19.9914 14.2672 17.8244ZM12.1465 17.8244C12.1465 21.1629 14.8519 23.869 18.1893 23.869C21.5268 23.869 24.2322 21.1629 24.2322 17.8244C24.2322 14.486 21.5268 11.7798 18.1893 11.7798C14.8519 11.7798 12.1465 14.486 12.1465 17.8244ZM23.0592 11.5401C23.0591 11.8195 23.1418 12.0927 23.2969 12.325C23.452 12.5574 23.6725 12.7385 23.9305 12.8456C24.1885 12.9526 24.4724 12.9807 24.7464 12.9263C25.0203 12.8719 25.272 12.7374 25.4696 12.54C25.6672 12.3425 25.8018 12.0908 25.8564 11.8168C25.911 11.5428 25.8831 11.2588 25.7764 11.0006C25.6696 10.7425 25.4887 10.5218 25.2565 10.3665C25.0243 10.2112 24.7513 10.1282 24.472 10.1281H24.4714C24.0971 10.1283 23.738 10.2771 23.4733 10.5418C23.2085 10.8066 23.0596 11.1656 23.0592 11.5401ZM13.4349 27.4063C12.2876 27.354 11.664 27.1628 11.2495 27.0013C10.7001 26.7874 10.3081 26.5325 9.8959 26.1208C9.48372 25.7091 9.22859 25.3173 9.01563 24.7677C8.85407 24.3534 8.66296 23.7294 8.6108 22.5817C8.55375 21.3409 8.54236 20.9681 8.54236 17.8245C8.54236 14.6809 8.55469 14.3092 8.6108 13.0673C8.66305 11.9196 8.85558 11.2969 9.01563 10.8813C9.22953 10.3317 9.48429 9.93956 9.8959 9.52726C10.3075 9.11497 10.6992 8.85976 11.2495 8.64674C11.6638 8.48514 12.2876 8.29397 13.4349 8.2418C14.6754 8.18473 15.0481 8.17333 18.1893 8.17333C21.3306 8.17333 21.7036 8.18567 22.9451 8.2418C24.0925 8.29406 24.7151 8.48665 25.1306 8.64674C25.68 8.85976 26.072 9.11554 26.4842 9.52726C26.8964 9.93899 27.1506 10.3317 27.3645 10.8813C27.526 11.2957 27.7171 11.9196 27.7693 13.0673C27.8263 14.3092 27.8377 14.6809 27.8377 17.8245C27.8377 20.9681 27.8263 21.3398 27.7693 22.5817C27.717 23.7294 27.525 24.3532 27.3645 24.7677C27.1506 25.3173 26.8958 25.7095 26.4842 26.1208C26.0726 26.5322 25.68 26.7874 25.1306 27.0013C24.7163 27.1629 24.0925 27.3541 22.9451 27.4063C21.7047 27.4634 21.332 27.4747 18.1893 27.4747C15.0466 27.4747 14.675 27.4634 13.4349 27.4063ZM13.3375 6.12402C12.0847 6.18109 11.2286 6.3798 10.481 6.67079C9.70676 6.9713 9.05131 7.37446 8.39633 8.02859C7.74136 8.68272 7.33935 9.33939 7.03893 10.1139C6.74802 10.8622 6.54937 11.718 6.49232 12.9712C6.43433 14.2263 6.42105 14.6276 6.42105 17.8244C6.42105 21.0212 6.43433 21.4225 6.49232 22.6776C6.54937 23.9309 6.74802 24.7867 7.03893 25.535C7.33935 26.309 7.74145 26.9664 8.39633 27.6202C9.05122 28.2741 9.70676 28.6767 10.481 28.978C11.23 29.269 12.0847 29.4677 13.3375 29.5248C14.5929 29.5819 14.9934 29.5961 18.1893 29.5961C21.3852 29.5961 21.7864 29.5828 23.0412 29.5248C24.2941 29.4677 25.1496 29.269 25.8977 28.978C26.6714 28.6767 27.3274 28.2744 27.9823 27.6202C28.6373 26.9661 29.0385 26.309 29.3397 25.535C29.6307 24.7867 29.8302 23.9308 29.8864 22.6776C29.9434 21.4216 29.9567 21.0212 29.9567 17.8244C29.9567 14.6276 29.9434 14.2263 29.8864 12.9712C29.8293 11.7179 29.6307 10.8617 29.3397 10.1139C29.0385 9.33986 28.6363 8.68375 27.9823 8.02859C27.3284 7.37342 26.6714 6.9713 25.8986 6.67079C25.1496 6.3798 24.294 6.18015 23.0421 6.12402C21.7873 6.06695 21.3862 6.05273 18.1903 6.05273C14.9944 6.05273 14.5929 6.06601 13.3375 6.12402Z" fill="#0E79B2"/>
</svg>
