<svg width="36" height="35" viewBox="0 0 36 35" fill="none" xmlns="http://www.w3.org/2000/svg">
<ellipse cx="18" cy="17.5" rx="18" ry="17.5" fill="#13262F"/>
<path d="M13.4024 26.3089V14.2392H9.39416V26.3089H13.4028H13.4024ZM11.3991 12.5916C12.7966 12.5916 13.6666 11.6647 13.6666 10.5065C13.6404 9.32184 12.7966 8.4209 11.4257 8.4209C10.0539 8.4209 9.1579 9.32184 9.1579 10.5064C9.1579 11.6646 10.0276 12.5915 11.3728 12.5915H11.3988L11.3991 12.5916ZM15.621 26.3089H19.6289V19.5694C19.6289 19.2091 19.6551 18.8479 19.761 18.5906C20.0506 17.8696 20.7101 17.1232 21.8176 17.1232C23.2676 17.1232 23.848 18.2299 23.848 19.8526V26.3089H27.8558V19.3885C27.8558 15.6814 25.8787 13.9562 23.2416 13.9562C21.0796 13.9562 20.1301 15.1657 19.6025 15.9895H19.6292V14.2396H15.6212C15.6735 15.3719 15.6209 26.3093 15.6209 26.3093L15.621 26.3089Z" fill="#0E79B2"/>
</svg>
