<svg width="24" height="24" viewBox="0 0 24 24" fill="none" xmlns="http://www.w3.org/2000/svg">
<circle cx="12" cy="12" r="12" fill="#9F2042"/>
<path d="M11.7665 11.6333C13.7255 11.6333 15.3274 10.0411 15.3274 8.0821C15.3274 6.12315 13.7351 4.52124 11.7665 4.52124C9.80759 4.52124 8.21533 6.1135 8.21533 8.0821C8.21533 10.0507 9.80759 11.6333 11.7665 11.6333Z" fill="#FFB400"/>
<path d="M14.546 13.0132H9.46041C7.183 13.0132 5.33984 14.866 5.33984 17.1338V17.79C5.33984 18.7164 6.1022 19.4788 7.0286 19.4788H16.9778C17.9042 19.4788 18.6665 18.7164 18.6665 17.79V17.1435C18.6665 14.866 16.8137 13.0132 14.546 13.0132Z" fill="#FFB400"/>
</svg>
