<svg width="24" height="24" viewBox="0 0 24 24" fill="none" xmlns="http://www.w3.org/2000/svg">
<circle cx="12" cy="12" r="12" fill="#9F2042"/>
<path d="M10.6268 17.8334C9.84016 17.8334 9.08016 17.6667 8.36683 17.3334L5.92683 17.6867C5.76683 17.7134 5.6135 17.6534 5.50016 17.5467C5.38683 17.4334 5.33349 17.2734 5.36016 17.12L5.7335 14.6467C5.46683 14.0067 5.3335 13.34 5.3335 12.6667C5.3335 11.32 5.86016 10.04 6.82016 9.07335C7.01349 8.87335 7.33349 8.88002 7.52682 9.07335C7.72016 9.26669 7.72682 9.58669 7.52682 9.78002C6.75349 10.56 6.32683 11.58 6.32683 12.6667C6.32683 13.2467 6.45349 13.8267 6.70683 14.38C6.76016 14.4934 6.76683 14.62 6.72683 14.74L6.44683 16.6067L8.37349 16.3267C8.47349 16.3134 8.5735 16.3267 8.66683 16.3734C9.4135 16.7467 10.2468 16.8934 11.0535 16.8134C11.3202 16.78 11.5735 16.9867 11.6002 17.26C11.6268 17.5334 11.4268 17.78 11.1535 17.8067C10.9868 17.8267 10.8068 17.8334 10.6268 17.8334Z" fill="#FFB400"/>
<path d="M18.6734 11.3334C18.6734 8.48669 16.2934 6.16669 13.3734 6.16669C11.9401 6.16669 10.6067 6.71335 9.62008 7.69335C8.62674 8.67335 8.08008 9.96002 8.08008 11.3334C8.08008 14.18 10.4534 16.5 13.3734 16.5C13.6401 16.5 13.8934 16.48 14.1068 16.4467C14.1134 16.4467 14.1267 16.4467 14.1334 16.44C14.6601 16.3667 15.1601 16.22 15.6334 16L18.0734 16.3534C18.2334 16.38 18.3867 16.3267 18.5001 16.2134C18.6067 16.1 18.6601 15.94 18.6401 15.7867L18.2667 13.3067C18.5334 12.6734 18.6734 12.0067 18.6734 11.3334ZM11.7401 11.5C11.6734 11.7067 11.4734 11.8534 11.2401 11.8534C10.9467 11.8534 10.7067 11.62 10.7067 11.3334C10.7067 11.0467 10.9467 10.8134 11.2401 10.8134C11.3001 10.8134 11.3534 10.82 11.4067 10.84C11.6201 10.9067 11.7734 11.1067 11.7734 11.3334C11.7734 11.3934 11.7601 11.4467 11.7401 11.5ZM13.3734 11.8534C13.0801 11.8534 12.8401 11.62 12.8401 11.3334C12.8401 11.0467 13.0801 10.8134 13.3734 10.8134C13.6667 10.8134 13.9067 11.0467 13.9067 11.3334C13.9067 11.62 13.6667 11.8534 13.3734 11.8534ZM15.5067 11.8534C15.2134 11.8534 14.9734 11.62 14.9734 11.3334C14.9734 11.0467 15.2134 10.8134 15.5067 10.8134C15.8001 10.8134 16.0401 11.0467 16.0401 11.3334C16.0401 11.62 15.8001 11.8534 15.5067 11.8534Z" fill="#FFB400"/>
</svg>
