<svg width="24" height="24" viewBox="0 0 24 24" fill="none" xmlns="http://www.w3.org/2000/svg">
<circle cx="12" cy="12" r="12" fill="#9F2042"/>
<path d="M11.4533 12.04C11.78 12.36 12.2266 12.36 12.5533 12.04L16.7666 7.85331L17.5466 7.07331C17.2533 6.91998 16.9266 6.83331 16.5733 6.83331H7.4333C7.07996 6.83331 6.75329 6.91998 6.45996 7.07331L7.23996 7.85331L11.4533 12.04Z" fill="#FFB400"/>
<path d="M9.95318 11.96L6.44651 8.46666L5.71318 7.73999C5.47318 8.07999 5.33984 8.48666 5.33984 8.93332V15.0667C5.33984 15.44 5.43984 15.7933 5.60651 16.0933C5.61318 16.0867 5.61318 16.0867 5.61985 16.08L6.37984 15.3533L9.95318 11.96Z" fill="#FFB400"/>
<path d="M13.393 12.6133L13.2596 12.7467C12.8996 13.1 12.453 13.28 11.9996 13.28C11.553 13.28 11.1063 13.1 10.7463 12.7467L10.6596 12.66L7.05964 16.1L6.31297 16.8067C6.3063 16.8133 6.29964 16.82 6.29297 16.82C6.61964 17.04 7.0063 17.1667 7.43297 17.1667H16.573C16.993 17.1667 17.3863 17.04 17.713 16.82L16.9663 16.0933L13.393 12.6133Z" fill="#FFB400"/>
<path d="M18.2996 7.73999L17.5663 8.46666L14.0996 11.9067L17.6329 15.3533L18.3996 16.1C18.5729 15.8 18.6729 15.44 18.6729 15.0667V8.93332C18.6729 8.48666 18.5396 8.07999 18.2996 7.73999Z" fill="#FFB400"/>
</svg>
