<svg width="24" height="24" viewBox="0 0 24 24" fill="none" xmlns="http://www.w3.org/2000/svg">
<ellipse cx="12" cy="11.6667" rx="12" ry="11.6667" fill="#13262F"/>
<path fill-rule="evenodd" clip-rule="evenodd" d="M12.0002 3.33331C7.21183 3.33331 3.3335 7.30974 3.3335 12.2192C3.3335 16.1512 5.81433 19.4723 9.25933 20.6497C9.69266 20.7274 9.85516 20.4608 9.85516 20.2276C9.85516 20.0166 9.84433 19.3168 9.84433 18.5726C7.66683 18.9836 7.1035 18.0283 6.93016 17.5285C6.83266 17.273 6.41016 16.4844 6.04183 16.2734C5.7385 16.1068 5.30516 15.6958 6.031 15.6847C6.7135 15.6736 7.201 16.3289 7.3635 16.5955C8.1435 17.9395 9.38933 17.5618 9.88766 17.3286C9.9635 16.751 10.191 16.3622 10.4402 16.1401C8.51183 15.9179 6.49683 15.1515 6.49683 11.7527C6.49683 10.7863 6.83266 9.98662 7.38516 9.3646C7.2985 9.14246 6.99516 8.23165 7.47183 7.00985C7.47183 7.00985 8.19766 6.77659 9.85516 7.92065C10.5485 7.72072 11.2852 7.62075 12.0218 7.62075C12.7585 7.62075 13.4952 7.72072 14.1885 7.92065C15.846 6.76548 16.5718 7.00985 16.5718 7.00985C17.0485 8.23165 16.7452 9.14246 16.6585 9.3646C17.211 9.98662 17.5468 10.7752 17.5468 11.7527C17.5468 15.1626 15.521 15.9179 13.5927 16.1401C13.9068 16.4178 14.1777 16.9509 14.1777 17.784C14.1777 18.9725 14.1668 19.9277 14.1668 20.2276C14.1668 20.4608 14.3293 20.7385 14.7627 20.6497C18.186 19.4723 20.6668 16.1401 20.6668 12.2192C20.6668 7.30974 16.7885 3.33331 12.0002 3.33331Z" fill="#0E79B2"/>
</svg>
