<svg width="24" height="24" viewBox="0 0 24 24" fill="none" xmlns="http://www.w3.org/2000/svg">
<circle cx="11.6667" cy="11.6667" r="11.6667" fill="#13262F"/>
<path d="M5.59071 17.4643H7.99216V11.6322L4.56152 9.05927V16.4351C4.56152 17.0046 5.02294 17.4643 5.59071 17.4643Z" fill="#0E79B2"/>
<path d="M16.2256 17.4643H18.627C19.1965 17.4643 19.6562 17.0029 19.6562 16.4351V9.05927L16.2256 11.6322" fill="#0E79B2"/>
<path d="M16.2256 7.17249V11.6323L19.6562 9.05934V7.68708C19.6562 6.41432 18.2033 5.68874 17.1862 6.45206" fill="#0E79B2"/>
<path d="M7.99219 11.6322V7.17242L12.1089 10.26L16.2257 7.17242V11.6322L12.1089 14.7198" fill="#0E79B2"/>
<path d="M4.56152 7.68708V9.05934L7.99216 11.6323V7.17249L7.03158 6.45206C6.01268 5.68874 4.56152 6.41432 4.56152 7.68708Z" fill="#0E79B2"/>
</svg>
