<svg width="40" height="40" viewBox="0 0 40 40" fill="none" xmlns="http://www.w3.org/2000/svg">
<circle cx="20" cy="20" r="20" fill="#0E79B2"/>
<path d="M30.6668 19.3498V26.5072C30.6668 28.8005 28.8748 30.6672 26.6668 30.6672H22.6668V25.5472C22.6668 24.8645 22.1122 24.3098 21.4295 24.3098H18.5708C17.8882 24.3098 17.3442 24.8645 17.3442 25.5472V30.6672H13.3335C11.1255 30.6672 9.3335 28.8005 9.3335 26.5072V19.3498C9.3335 18.1232 9.85616 16.9605 10.7522 16.1605L17.4188 10.3152C18.9228 9.00318 21.0882 9.00318 22.5815 10.3152L29.2482 16.1605C30.1548 16.9605 30.6668 18.1232 30.6668 19.3498Z" fill="#FFB400"/>
</svg>
