<svg width="25" height="24" viewBox="0 0 25 24" fill="none" xmlns="http://www.w3.org/2000/svg">
<ellipse cx="12.3335" cy="11.6667" rx="12" ry="11.6667" fill="#13262F"/>
<path d="M9.84503 11.8829C9.84503 10.4382 11.0155 9.26675 12.4598 9.26675C13.904 9.26675 15.0752 10.4382 15.0752 11.8829C15.0752 13.3276 13.904 14.499 12.4598 14.499C11.0155 14.499 9.84503 13.3276 9.84503 11.8829ZM8.4312 11.8829C8.4312 14.1085 10.2348 15.9126 12.4598 15.9126C14.6848 15.9126 16.4884 14.1085 16.4884 11.8829C16.4884 9.65725 14.6848 7.85314 12.4598 7.85314C10.2348 7.85314 8.4312 9.65725 8.4312 11.8829ZM15.7064 7.69336C15.7063 7.87962 15.7615 8.06171 15.8648 8.21662C15.9682 8.37153 16.1152 8.49229 16.2872 8.56364C16.4592 8.63499 16.6485 8.65371 16.8311 8.61745C17.0138 8.58118 17.1816 8.49156 17.3133 8.35991C17.445 8.22826 17.5347 8.06049 17.5711 7.87783C17.6075 7.69516 17.589 7.5058 17.5178 7.3337C17.4466 7.16159 17.326 7.01446 17.1712 6.91092C17.0164 6.80738 16.8344 6.75207 16.6482 6.752H16.6478C16.3983 6.75212 16.1589 6.85132 15.9824 7.02782C15.8059 7.20433 15.7066 7.4437 15.7064 7.69336ZM9.29019 18.2708C8.52528 18.236 8.10953 18.1085 7.83324 18.0008C7.46695 17.8582 7.2056 17.6883 6.93082 17.4138C6.65604 17.1393 6.48595 16.8782 6.34398 16.5118C6.23627 16.2355 6.10886 15.8195 6.07409 15.0544C6.03605 14.2272 6.02846 13.9787 6.02846 11.8829C6.02846 9.78721 6.03668 9.53941 6.07409 8.7115C6.10892 7.94637 6.23728 7.53119 6.34398 7.25413C6.48658 6.88774 6.65642 6.62631 6.93082 6.35145C7.20523 6.07659 7.46633 5.90645 7.83324 5.76443C8.10941 5.6567 8.52528 5.52925 9.29019 5.49447C10.1172 5.45642 10.3656 5.44883 12.4598 5.44883C14.554 5.44883 14.8026 5.45705 15.6303 5.49447C16.3952 5.52931 16.8103 5.6577 17.0873 5.76443C17.4536 5.90645 17.7149 6.07696 17.9897 6.35145C18.2645 6.62593 18.4339 6.88774 18.5765 7.25413C18.6842 7.53037 18.8116 7.94637 18.8464 8.7115C18.8844 9.53941 18.892 9.78721 18.892 11.8829C18.892 13.9787 18.8844 14.2265 18.8464 15.0544C18.8116 15.8195 18.6835 16.2354 18.5765 16.5118C18.4339 16.8782 18.2641 17.1396 17.9897 17.4138C17.7153 17.6881 17.4536 17.8582 17.0873 18.0008C16.8111 18.1086 16.3952 18.236 15.6303 18.2708C14.8033 18.3088 14.5549 18.3164 12.4598 18.3164C10.3647 18.3164 10.1169 18.3088 9.29019 18.2708ZM9.22523 4.08262C8.39003 4.12067 7.81931 4.25314 7.3209 4.44714C6.80473 4.64747 6.36776 4.91624 5.93111 5.35233C5.49446 5.78842 5.22646 6.2262 5.02618 6.74252C4.83224 7.24139 4.69981 7.81195 4.66177 8.6474C4.62311 9.48416 4.61426 9.75168 4.61426 11.8829C4.61426 14.0141 4.62311 14.2816 4.66177 15.1184C4.69981 15.9539 4.83224 16.5244 5.02618 17.0232C5.22646 17.5393 5.49453 17.9775 5.93111 18.4134C6.3677 18.8493 6.80473 19.1177 7.3209 19.3186C7.82025 19.5126 8.39003 19.6451 9.22523 19.6831C10.0622 19.7212 10.3292 19.7307 12.4598 19.7307C14.5904 19.7307 14.8578 19.7218 15.6943 19.6831C16.5296 19.6451 17.0999 19.5126 17.5987 19.3186C18.1145 19.1177 18.5518 18.8495 18.9884 18.4134C19.4251 17.9774 19.6925 17.5393 19.8934 17.0232C20.0873 16.5244 20.2204 15.9538 20.2578 15.1184C20.2958 14.281 20.3047 14.0141 20.3047 11.8829C20.3047 9.75168 20.2958 9.48416 20.2578 8.6474C20.2198 7.81189 20.0873 7.24107 19.8934 6.74252C19.6925 6.22651 19.4244 5.78911 18.9884 5.35233C18.5525 4.91555 18.1145 4.64747 17.5993 4.44714C17.0999 4.25314 16.5295 4.12004 15.695 4.08262C14.8584 4.04458 14.591 4.0351 12.4604 4.0351C10.3298 4.0351 10.0622 4.04395 9.22523 4.08262Z" fill="#0E79B2"/>
<path d="M9.84503 11.8829C9.84503 10.4382 11.0155 9.26675 12.4598 9.26675C13.904 9.26675 15.0752 10.4382 15.0752 11.8829C15.0752 13.3276 13.904 14.499 12.4598 14.499C11.0155 14.499 9.84503 13.3276 9.84503 11.8829ZM8.4312 11.8829C8.4312 14.1085 10.2348 15.9126 12.4598 15.9126C14.6848 15.9126 16.4884 14.1085 16.4884 11.8829C16.4884 9.65725 14.6848 7.85314 12.4598 7.85314C10.2348 7.85314 8.4312 9.65725 8.4312 11.8829ZM15.7064 7.69336C15.7063 7.87962 15.7615 8.06171 15.8648 8.21662C15.9682 8.37153 16.1152 8.49229 16.2872 8.56364C16.4592 8.63499 16.6485 8.65371 16.8311 8.61745C17.0138 8.58118 17.1816 8.49156 17.3133 8.35991C17.445 8.22826 17.5347 8.06049 17.5711 7.87783C17.6075 7.69516 17.589 7.5058 17.5178 7.3337C17.4466 7.16159 17.326 7.01446 17.1712 6.91092C17.0164 6.80738 16.8344 6.75207 16.6482 6.752H16.6478C16.3983 6.75212 16.1589 6.85132 15.9824 7.02782C15.8059 7.20433 15.7066 7.4437 15.7064 7.69336ZM9.29019 18.2708C8.52528 18.236 8.10953 18.1085 7.83324 18.0008C7.46695 17.8582 7.2056 17.6883 6.93082 17.4138C6.65604 17.1393 6.48595 16.8782 6.34398 16.5118C6.23627 16.2355 6.10886 15.8195 6.07409 15.0544C6.03605 14.2272 6.02846 13.9787 6.02846 11.8829C6.02846 9.78721 6.03668 9.53941 6.07409 8.7115C6.10892 7.94637 6.23728 7.53119 6.34398 7.25413C6.48658 6.88774 6.65642 6.62631 6.93082 6.35145C7.20523 6.07659 7.46633 5.90645 7.83324 5.76443C8.10941 5.6567 8.52528 5.52925 9.29019 5.49447C10.1172 5.45642 10.3656 5.44883 12.4598 5.44883C14.554 5.44883 14.8026 5.45705 15.6303 5.49447C16.3952 5.52931 16.8103 5.6577 17.0873 5.76443C17.4536 5.90645 17.7149 6.07696 17.9897 6.35145C18.2645 6.62593 18.4339 6.88774 18.5765 7.25413C18.6842 7.53037 18.8116 7.94637 18.8464 8.7115C18.8844 9.53941 18.892 9.78721 18.892 11.8829C18.892 13.9787 18.8844 14.2265 18.8464 15.0544C18.8116 15.8195 18.6835 16.2354 18.5765 16.5118C18.4339 16.8782 18.2641 17.1396 17.9897 17.4138C17.7153 17.6881 17.4536 17.8582 17.0873 18.0008C16.8111 18.1086 16.3952 18.236 15.6303 18.2708C14.8033 18.3088 14.5549 18.3164 12.4598 18.3164C10.3647 18.3164 10.1169 18.3088 9.29019 18.2708ZM9.22523 4.08262C8.39003 4.12067 7.81931 4.25314 7.3209 4.44714C6.80473 4.64747 6.36776 4.91624 5.93111 5.35233C5.49446 5.78842 5.22646 6.2262 5.02618 6.74252C4.83224 7.24139 4.69981 7.81195 4.66177 8.6474C4.62311 9.48416 4.61426 9.75168 4.61426 11.8829C4.61426 14.0141 4.62311 14.2816 4.66177 15.1184C4.69981 15.9539 4.83224 16.5244 5.02618 17.0232C5.22646 17.5393 5.49453 17.9775 5.93111 18.4134C6.3677 18.8493 6.80473 19.1177 7.3209 19.3186C7.82025 19.5126 8.39003 19.6451 9.22523 19.6831C10.0622 19.7212 10.3292 19.7307 12.4598 19.7307C14.5904 19.7307 14.8578 19.7218 15.6943 19.6831C16.5296 19.6451 17.0999 19.5126 17.5987 19.3186C18.1145 19.1177 18.5518 18.8495 18.9884 18.4134C19.4251 17.9774 19.6925 17.5393 19.8934 17.0232C20.0873 16.5244 20.2204 15.9538 20.2578 15.1184C20.2958 14.281 20.3047 14.0141 20.3047 11.8829C20.3047 9.75168 20.2958 9.48416 20.2578 8.6474C20.2198 7.81189 20.0873 7.24107 19.8934 6.74252C19.6925 6.22651 19.4244 5.78911 18.9884 5.35233C18.5525 4.91555 18.1145 4.64747 17.5993 4.44714C17.0999 4.25314 16.5295 4.12004 15.695 4.08262C14.8584 4.04458 14.591 4.0351 12.4604 4.0351C10.3298 4.0351 10.0622 4.04395 9.22523 4.08262Z" fill="#0E79B2"/>
</svg>
