<svg width="25" height="24" viewBox="0 0 25 24" fill="none" xmlns="http://www.w3.org/2000/svg">
<ellipse cx="12.3335" cy="11.6667" rx="12" ry="11.6667" fill="#13262F"/>
<path d="M9.26813 17.5394V9.49287H6.59598V17.5394H9.26841H9.26813ZM7.93262 8.39445C8.86426 8.39445 9.44426 7.77658 9.44426 7.00441C9.42683 6.21464 8.86426 5.61401 7.95033 5.61401C7.03578 5.61401 6.43848 6.21464 6.43848 7.00434C6.43848 7.77651 7.01828 8.39438 7.91511 8.39438H7.93241L7.93262 8.39445ZM10.7472 17.5394H13.4191V13.0463C13.4191 12.8062 13.4366 12.5654 13.5072 12.3938C13.7003 11.9131 14.1399 11.4155 14.8783 11.4155C15.8449 11.4155 16.2319 12.1534 16.2319 13.2352V17.5394H18.9037V12.9257C18.9037 10.4543 17.5857 9.30423 15.8276 9.30423C14.3863 9.30423 13.7533 10.1105 13.4016 10.6597H13.4194V9.49315H10.7473C10.7822 10.248 10.7471 17.5396 10.7471 17.5396L10.7472 17.5394Z" fill="#0E79B2"/>
</svg>
