<svg width="24" height="24" viewBox="0 0 24 24" fill="none" xmlns="http://www.w3.org/2000/svg">
<circle cx="12" cy="12" r="12" fill="#9F2042"/>
<path d="M16.5602 8.40002H14.0135C13.7068 8.40002 13.4202 8.24002 13.2668 7.98002L12.8268 7.25336C12.4935 6.69336 11.8802 6.34668 11.2268 6.34668H7.20683C6.17349 6.34668 5.3335 7.18668 5.3335 8.22001V15.5467C5.3335 16.7067 6.28017 17.6534 7.44017 17.6534H16.5602C17.7202 17.6534 18.6668 16.7067 18.6668 15.5467V10.5067C18.6668 9.34669 17.7202 8.40002 16.5602 8.40002ZM6.3335 8.22001C6.3335 7.74001 6.72683 7.34668 7.20683 7.34668H11.2268C11.5268 7.34668 11.8135 7.50668 11.9735 7.76668L12.3535 8.40002H6.3335V8.22001Z" fill="#FFB400"/>
</svg>
