<svg width="24" height="24" viewBox="0 0 24 24" fill="none" xmlns="http://www.w3.org/2000/svg">
<circle cx="12" cy="12" r="12" fill="#9F2042"/>
<path d="M19.2496 17.7461C19.4482 17.3379 19.2827 16.8415 18.8745 16.6319C14.7265 14.5689 9.1223 14.602 5.00739 16.7202C4.59921 16.9298 4.44476 17.4262 4.65437 17.8344C4.79778 18.1212 5.09564 18.2867 5.39351 18.2867C5.52589 18.2867 5.64724 18.2536 5.76859 18.1984C9.42016 16.312 14.4507 16.2899 18.1354 18.1212C18.5546 18.3198 19.051 18.1543 19.2496 17.7461Z" fill="#FFB400"/>
<path d="M12.0346 12.8479C14.2741 12.8479 16.1054 11.0277 16.1054 8.77714C16.1054 6.53766 14.2852 4.70636 12.0346 4.70636C9.78413 4.70636 7.96387 6.52663 7.96387 8.77714C7.96387 11.0277 9.79517 12.8479 12.0346 12.8479Z" fill="#FFB400"/>
</svg>
