<svg width="24" height="24" viewBox="0 0 24 24" fill="none" xmlns="http://www.w3.org/2000/svg">
<circle cx="12" cy="12" r="12" fill="#9F2042"/>
<path fill-rule="evenodd" clip-rule="evenodd" d="M5.3335 9.33331C5.3335 7.12417 7.12436 5.33331 9.3335 5.33331H14.6668C16.876 5.33331 18.6668 7.12417 18.6668 9.33331V14.6666C18.6668 16.8758 16.876 18.6666 14.6668 18.6666H9.33349C7.12435 18.6666 5.3335 16.8758 5.3335 14.6666V9.33331ZM7.05063 8.26257C7.44116 7.87205 8.07432 7.87205 8.46485 8.26257L11.4951 11.2929C11.8857 11.6834 11.8857 12.3166 11.4951 12.7071L8.46485 15.7374C8.07432 16.1279 7.44116 16.1279 7.05063 15.7374C6.66011 15.3469 6.66011 14.7137 7.05063 14.3232L9.37383 12L7.05063 9.67678C6.66011 9.28626 6.66011 8.65309 7.05063 8.26257ZM12.3941 13.6363C11.8418 13.6363 11.3941 14.0841 11.3941 14.6363C11.3941 15.1886 11.8418 15.6363 12.3941 15.6363H14.6365C15.1888 15.6363 15.6365 15.1886 15.6365 14.6363C15.6365 14.0841 15.1888 13.6363 14.6365 13.6363H12.3941Z" fill="#FFB400"/>
</svg>
