<svg width="24" height="24" viewBox="0 0 24 24" fill="none" xmlns="http://www.w3.org/2000/svg">
<ellipse cx="12" cy="11.6667" rx="12" ry="11.6667" fill="#13262F"/>
<path d="M7.78561 14.0184C7.78561 14.9362 7.04445 15.678 6.12742 15.678C5.2104 15.678 4.46924 14.9362 4.46924 14.0184C4.46924 13.1005 5.2104 12.3587 6.12742 12.3587H7.78561V14.0184ZM8.6147 14.0184C8.6147 13.1005 9.35586 12.3587 10.2729 12.3587C11.1899 12.3587 11.9311 13.1005 11.9311 14.0184V18.1675C11.9311 19.0854 11.1899 19.8272 10.2729 19.8272C9.35586 19.8272 8.6147 19.0854 8.6147 18.1675V14.0184Z" fill="#0E79B2"/>
<path d="M10.2723 7.35441C9.35524 7.35441 8.61408 6.6126 8.61408 5.69475C8.61408 4.77691 9.35524 4.0351 10.2723 4.0351C11.1893 4.0351 11.9304 4.77691 11.9304 5.69475V7.35441H10.2723ZM10.2723 8.19682C11.1893 8.19682 11.9304 8.93863 11.9304 9.85648C11.9304 10.7743 11.1893 11.5161 10.2723 11.5161H6.11424C5.19721 11.5161 4.45605 10.7743 4.45605 9.85648C4.45605 8.93863 5.19721 8.19682 6.11424 8.19682H10.2723Z" fill="#0E79B2"/>
<path d="M16.9184 9.85648C16.9184 8.93863 17.6596 8.19682 18.5766 8.19682C19.4936 8.19682 20.2348 8.93863 20.2348 9.85648C20.2348 10.7743 19.4936 11.5161 18.5766 11.5161H16.9184V9.85648ZM16.0893 9.85648C16.0893 10.7743 15.3482 11.5161 14.4311 11.5161C13.5141 11.5161 12.7729 10.7743 12.7729 9.85648V5.69475C12.7729 4.77691 13.5141 4.0351 14.4311 4.0351C15.3482 4.0351 16.0893 4.77691 16.0893 5.69475V9.85648Z" fill="#0E79B2"/>
<path d="M14.4311 16.5079C15.3482 16.5079 16.0893 17.2497 16.0893 18.1675C16.0893 19.0854 15.3482 19.8272 14.4311 19.8272C13.5141 19.8272 12.7729 19.0854 12.7729 18.1675V16.5079H14.4311ZM14.4311 15.678C13.5141 15.678 12.7729 14.9362 12.7729 14.0184C12.7729 13.1005 13.5141 12.3587 14.4311 12.3587H18.5892C19.5062 12.3587 20.2473 13.1005 20.2473 14.0184C20.2473 14.9362 19.5062 15.678 18.5892 15.678H14.4311Z" fill="#0E79B2"/>
</svg>
