<svg width="80" height="80" viewBox="0 0 80 80" fill="none" xmlns="http://www.w3.org/2000/svg">
<g filter="url(#filter0_d_35_254)">
<circle cx="40" cy="40" r="18" fill="#9F2042"/>
</g>
<path d="M46.84 34.6H43.02C42.56 34.6 42.13 34.36 41.9 33.97L41.24 32.88C40.74 32.04 39.82 31.52 38.84 31.52H32.81C31.26 31.52 30 32.78 30 34.33V45.32C30 47.06 31.42 48.48 33.16 48.48H46.84C48.58 48.48 50 47.06 50 45.32V37.76C50 36.02 48.58 34.6 46.84 34.6ZM31.5 34.33C31.5 33.61 32.09 33.02 32.81 33.02H38.84C39.29 33.02 39.72 33.26 39.96 33.65L40.53 34.6H31.5V34.33Z" fill="#FFB400"/>
<defs>
<filter id="filter0_d_35_254" x="0" y="0" width="80" height="80" filterUnits="userSpaceOnUse" color-interpolation-filters="sRGB">
<feFlood flood-opacity="0" result="BackgroundImageFix"/>
<feColorMatrix in="SourceAlpha" type="matrix" values="0 0 0 0 0 0 0 0 0 0 0 0 0 0 0 0 0 0 127 0" result="hardAlpha"/>
<feMorphology radius="2" operator="dilate" in="SourceAlpha" result="effect1_dropShadow_35_254"/>
<feOffset/>
<feGaussianBlur stdDeviation="10"/>
<feComposite in2="hardAlpha" operator="out"/>
<feColorMatrix type="matrix" values="0 0 0 0 0 0 0 0 0 0.0933036 0 0 0 0 0.1375 0 0 0 0.7 0"/>
<feBlend mode="normal" in2="BackgroundImageFix" result="effect1_dropShadow_35_254"/>
<feBlend mode="normal" in="SourceGraphic" in2="effect1_dropShadow_35_254" result="shape"/>
</filter>
</defs>
</svg>
