<svg width="104" height="104" viewBox="0 0 104 104" fill="none" xmlns="http://www.w3.org/2000/svg">
<g filter="url(#filter0_d_35_460)">
<circle cx="52" cy="52" r="30" fill="#0E79B2"/>
</g>
<path d="M63.4 43.0001H57.0334C56.2667 43.0001 55.55 42.6001 55.1667 41.9501L54.0667 40.1334C53.2334 38.7334 51.7 37.8667 50.0667 37.8667H40.0167C37.4334 37.8667 35.3334 39.9667 35.3334 42.55V60.8667C35.3334 63.7667 37.7 66.1334 40.6 66.1334H63.4C66.3 66.1334 68.6667 63.7667 68.6667 60.8667V48.2667C68.6667 45.3667 66.3 43.0001 63.4 43.0001ZM37.8334 42.55C37.8334 41.35 38.8167 40.3667 40.0167 40.3667H50.0667C50.8167 40.3667 51.5334 40.7667 51.9334 41.4167L52.8834 43.0001H37.8334V42.55Z" fill="#FFB400"/>
<defs>
<filter id="filter0_d_35_460" x="0" y="0" width="104" height="104" filterUnits="userSpaceOnUse" color-interpolation-filters="sRGB">
<feFlood flood-opacity="0" result="BackgroundImageFix"/>
<feColorMatrix in="SourceAlpha" type="matrix" values="0 0 0 0 0 0 0 0 0 0 0 0 0 0 0 0 0 0 127 0" result="hardAlpha"/>
<feMorphology radius="2" operator="dilate" in="SourceAlpha" result="effect1_dropShadow_35_460"/>
<feOffset/>
<feGaussianBlur stdDeviation="10"/>
<feComposite in2="hardAlpha" operator="out"/>
<feColorMatrix type="matrix" values="0 0 0 0 0 0 0 0 0 0.0933036 0 0 0 0 0.1375 0 0 0 0.7 0"/>
<feBlend mode="normal" in2="BackgroundImageFix" result="effect1_dropShadow_35_460"/>
<feBlend mode="normal" in="SourceGraphic" in2="effect1_dropShadow_35_460" result="shape"/>
</filter>
</defs>
</svg>
