<svg width="22" height="18" viewBox="0 0 22 18" fill="none" xmlns="http://www.w3.org/2000/svg">
<path d="M9 1H13V5H9V1ZM9 13H13V17H9V13ZM1 13H5V17H1V13ZM17 13H21V17H17V13Z" fill="#FFB400" stroke="#9F2042" stroke-linecap="round" stroke-linejoin="round"/>
<path d="M11 5V9ZM11 13V9ZM11 9H17C17.5304 9 18.0391 9.21071 18.4142 9.58579C18.7893 9.96086 19 10.4696 19 11V13M11 9H5C4.46957 9 3.96086 9.21071 3.58579 9.58579C3.21071 9.96086 3 10.4696 3 11V13" fill="#FFB400"/>
<path d="M11 5V9M11 13V9M11 9H17C17.5304 9 18.0391 9.21071 18.4142 9.58579C18.7893 9.96086 19 10.4696 19 11V13M11 9H5C4.46957 9 3.96086 9.21071 3.58579 9.58579C3.21071 9.96086 3 10.4696 3 11V13" stroke="#9F2042" stroke-linecap="round" stroke-linejoin="round"/>
</svg>
