<svg width="80" height="80" viewBox="0 0 80 80" fill="none" xmlns="http://www.w3.org/2000/svg">
<g filter="url(#filter0_d_35_261)">
<circle cx="40" cy="40" r="18" fill="#9F2042"/>
</g>
<path fill-rule="evenodd" clip-rule="evenodd" d="M30 34C30 31.7909 31.7909 30 34 30H46C48.2091 30 50 31.7909 50 34V46C50 48.2091 48.2091 50 46 50H34C31.7909 50 30 48.2091 30 46V34ZM32.9293 34.7474C33.3198 34.3569 33.9529 34.3569 34.3435 34.7474L38.8889 39.2929C39.2794 39.6834 39.2794 40.3166 38.8889 40.7071L34.3435 45.2526C33.9529 45.6431 33.3198 45.6431 32.9293 45.2526C32.5387 44.862 32.5387 44.2289 32.9293 43.8383L36.7676 40L32.9293 36.1617C32.5387 35.7711 32.5387 35.138 32.9293 34.7474ZM40.0909 43.4545C39.5386 43.4545 39.0909 43.9023 39.0909 44.4545C39.0909 45.0068 39.5386 45.4545 40.0909 45.4545H44.4545C45.0068 45.4545 45.4545 45.0068 45.4545 44.4545C45.4545 43.9023 45.0068 43.4545 44.4545 43.4545H40.0909Z" fill="#FFB400"/>
<defs>
<filter id="filter0_d_35_261" x="0" y="0" width="80" height="80" filterUnits="userSpaceOnUse" color-interpolation-filters="sRGB">
<feFlood flood-opacity="0" result="BackgroundImageFix"/>
<feColorMatrix in="SourceAlpha" type="matrix" values="0 0 0 0 0 0 0 0 0 0 0 0 0 0 0 0 0 0 127 0" result="hardAlpha"/>
<feMorphology radius="2" operator="dilate" in="SourceAlpha" result="effect1_dropShadow_35_261"/>
<feOffset/>
<feGaussianBlur stdDeviation="10"/>
<feComposite in2="hardAlpha" operator="out"/>
<feColorMatrix type="matrix" values="0 0 0 0 0 0 0 0 0 0.0933036 0 0 0 0 0.1375 0 0 0 0.7 0"/>
<feBlend mode="normal" in2="BackgroundImageFix" result="effect1_dropShadow_35_261"/>
<feBlend mode="normal" in="SourceGraphic" in2="effect1_dropShadow_35_261" result="shape"/>
</filter>
</defs>
</svg>
