<svg width="100" height="100" viewBox="0 0 100 100" fill="none" xmlns="http://www.w3.org/2000/svg">
<g filter="url(#filter0_d_35_402)">
<circle cx="50" cy="50" r="28" fill="#0E79B2"/>
</g>
<path fill-rule="evenodd" clip-rule="evenodd" d="M34.4445 38.4443C34.4445 36.2352 36.2353 34.4443 38.4445 34.4443H61.5556C63.7647 34.4443 65.5556 36.2352 65.5556 38.4443V61.5554C65.5556 63.7646 63.7647 65.5554 61.5556 65.5554H38.4445C36.2353 65.5554 34.4445 63.7646 34.4445 61.5554V38.4443ZM39.3939 42.2221C39.7844 41.8316 40.4176 41.8316 40.8081 42.2221L47.8788 49.2928C48.0664 49.4803 48.1717 49.7347 48.1717 49.9999C48.1717 50.2651 48.0664 50.5195 47.8788 50.707L40.8081 57.7777C40.4176 58.1682 39.7844 58.1682 39.3939 57.7777C39.0034 57.3872 39.0034 56.754 39.3939 56.3635L45.7575 49.9999L39.3939 43.6363C39.0034 43.2458 39.0034 42.6126 39.3939 42.2221ZM49.5859 56.4847C49.0336 56.4847 48.5859 56.9325 48.5859 57.4847C48.5859 58.037 49.0336 58.4847 49.5859 58.4847H57.4849C58.0371 58.4847 58.4849 58.037 58.4849 57.4847C58.4849 56.9325 58.0371 56.4847 57.4849 56.4847H49.5859Z" fill="#FFB400"/>
<defs>
<filter id="filter0_d_35_402" x="0" y="0" width="100" height="100" filterUnits="userSpaceOnUse" color-interpolation-filters="sRGB">
<feFlood flood-opacity="0" result="BackgroundImageFix"/>
<feColorMatrix in="SourceAlpha" type="matrix" values="0 0 0 0 0 0 0 0 0 0 0 0 0 0 0 0 0 0 127 0" result="hardAlpha"/>
<feMorphology radius="2" operator="dilate" in="SourceAlpha" result="effect1_dropShadow_35_402"/>
<feOffset/>
<feGaussianBlur stdDeviation="10"/>
<feComposite in2="hardAlpha" operator="out"/>
<feColorMatrix type="matrix" values="0 0 0 0 0 0 0 0 0 0.0933036 0 0 0 0 0.1375 0 0 0 0.7 0"/>
<feBlend mode="normal" in2="BackgroundImageFix" result="effect1_dropShadow_35_402"/>
<feBlend mode="normal" in="SourceGraphic" in2="effect1_dropShadow_35_402" result="shape"/>
</filter>
</defs>
</svg>
