<svg width="36" height="35" viewBox="0 0 36 35" fill="none" xmlns="http://www.w3.org/2000/svg">
<ellipse cx="18" cy="17.5" rx="18" ry="17.5" fill="#13262F"/>
<path d="M11.6788 21.0276C11.6788 22.4043 10.5671 23.5171 9.19153 23.5171C7.81599 23.5171 6.70425 22.4043 6.70425 21.0276C6.70425 19.6508 7.81599 18.5381 9.19153 18.5381H11.6788V21.0276ZM12.9224 21.0276C12.9224 19.6508 14.0342 18.5381 15.4097 18.5381C16.7853 18.5381 17.897 19.6508 17.897 21.0276V27.2513C17.897 28.6281 16.7853 29.7408 15.4097 29.7408C14.0342 29.7408 12.9224 28.6281 12.9224 27.2513V21.0276Z" fill="#0E79B2"/>
<path d="M15.4085 11.0317C14.033 11.0317 12.9212 9.91899 12.9212 8.54222C12.9212 7.16546 14.033 6.05273 15.4085 6.05273C16.7841 6.05273 17.8958 7.16546 17.8958 8.54222V11.0317H15.4085ZM15.4085 12.2953C16.7841 12.2953 17.8958 13.408 17.8958 14.7848C17.8958 16.1616 16.7841 17.2743 15.4085 17.2743H9.17148C7.79594 17.2743 6.6842 16.1616 6.6842 14.7848C6.6842 13.408 7.79594 12.2953 9.17148 12.2953H15.4085Z" fill="#0E79B2"/>
<path d="M25.3774 14.7848C25.3774 13.408 26.4891 12.2953 27.8647 12.2953C29.2402 12.2953 30.352 13.408 30.352 14.7848C30.352 16.1616 29.2402 17.2743 27.8647 17.2743H25.3774V14.7848ZM24.1338 14.7848C24.1338 16.1616 23.022 17.2743 21.6465 17.2743C20.2709 17.2743 19.1592 16.1616 19.1592 14.7848V8.54222C19.1592 7.16546 20.2709 6.05273 21.6465 6.05273C23.022 6.05273 24.1338 7.16546 24.1338 8.54222V14.7848Z" fill="#0E79B2"/>
<path d="M21.6465 24.7618C23.022 24.7618 24.1338 25.8745 24.1338 27.2513C24.1338 28.6281 23.022 29.7408 21.6465 29.7408C20.2709 29.7408 19.1592 28.6281 19.1592 27.2513V24.7618H21.6465ZM21.6465 23.5171C20.2709 23.5171 19.1592 22.4043 19.1592 21.0276C19.1592 19.6508 20.2709 18.5381 21.6465 18.5381H27.8835C29.2591 18.5381 30.3708 19.6508 30.3708 21.0276C30.3708 22.4043 29.2591 23.5171 27.8835 23.5171H21.6465Z" fill="#0E79B2"/>
</svg>
