<svg width="70" height="70" viewBox="0 0 70 70" fill="none" xmlns="http://www.w3.org/2000/svg">
<path d="M53.2455 23.2365C52.2795 23.2365 51.3345 23.324 50.414 23.4745C48.118 15.967 41.006 10.5 32.5815 10.5C22.295 10.5 13.9615 18.648 13.9615 28.6965C13.9615 29.5925 14.0315 30.4745 14.161 31.3425C13.6629 31.2808 13.1614 31.2493 12.6595 31.248C5.6665 31.248 0 36.785 0 43.6205C0 50.456 5.6665 56 12.6595 56H28V42H19.25L35 24.5L50.75 42H42V56H53.2455C62.496 56 70 48.664 70 39.62C70 30.569 62.496 23.2365 53.2455 23.2365Z" fill="#9F2042"/>
</svg>
