<svg width="45" height="45" viewBox="0 0 45 45" fill="none" xmlns="http://www.w3.org/2000/svg">
<path d="M22.5 0C28.4674 0 34.1903 2.37053 38.4099 6.5901C42.6295 10.8097 45 16.5326 45 22.5C45 28.4674 42.6295 34.1903 38.4099 38.4099C34.1903 42.6295 28.4674 45 22.5 45C16.5326 45 10.8097 42.6295 6.5901 38.4099C2.37053 34.1903 0 28.4674 0 22.5C0 16.5326 2.37053 10.8097 6.5901 6.5901C10.8097 2.37053 16.5326 0 22.5 0ZM22.5 19.7711L17.2736 14.5446C16.9117 14.1828 16.4209 13.9795 15.9091 13.9795C15.3973 13.9795 14.9065 14.1828 14.5446 14.5446C14.1828 14.9065 13.9795 15.3973 13.9795 15.9091C13.9795 16.4209 14.1828 16.9117 14.5446 17.2736L19.7711 22.5L14.5446 27.7264C14.3655 27.9056 14.2233 28.1183 14.1263 28.3525C14.0294 28.5866 13.9795 28.8375 13.9795 29.0909C13.9795 29.3443 14.0294 29.5952 14.1263 29.8293C14.2233 30.0635 14.3655 30.2762 14.5446 30.4554C14.7238 30.6345 14.9365 30.7767 15.1707 30.8736C15.4048 30.9706 15.6557 31.0205 15.9091 31.0205C16.1625 31.0205 16.4134 30.9706 16.6476 30.8736C16.8817 30.7767 17.0944 30.6345 17.2736 30.4554L22.5 25.2289L27.7264 30.4554C27.9056 30.6345 28.1183 30.7767 28.3525 30.8736C28.5866 30.9706 28.8375 31.0205 29.0909 31.0205C29.3443 31.0205 29.5952 30.9706 29.8293 30.8736C30.0635 30.7767 30.2762 30.6345 30.4554 30.4554C30.6345 30.2762 30.7767 30.0635 30.8736 29.8293C30.9706 29.5952 31.0205 29.3443 31.0205 29.0909C31.0205 28.8375 30.9706 28.5866 30.8736 28.3525C30.7767 28.1183 30.6345 27.9056 30.4554 27.7264L25.2289 22.5L30.4554 17.2736C30.6345 17.0944 30.7767 16.8817 30.8736 16.6476C30.9706 16.4134 31.0205 16.1625 31.0205 15.9091C31.0205 15.6557 30.9706 15.4048 30.8736 15.1707C30.7767 14.9365 30.6345 14.7238 30.4554 14.5446C30.2762 14.3655 30.0635 14.2233 29.8293 14.1263C29.5952 14.0294 29.3443 13.9795 29.0909 13.9795C28.8375 13.9795 28.5866 14.0294 28.3525 14.1263C28.1183 14.2233 27.9056 14.3655 27.7264 14.5446L22.5 19.7711Z" fill="#FFB400" fill-opacity="0.8"/>
</svg>
